<?xml version="1.0" encoding="UTF-8"?>
<svg version="1.1" xmlns="http://www.w3.org/2000/svg" width="2048" height="2048">
<path d="M0 0 C675.84 0 1351.68 0 2048 0 C2048 675.84 2048 1351.68 2048 2048 C1372.16 2048 696.32 2048 0 2048 C0 1372.16 0 696.32 0 0 Z " fill="#F1FCF1" transform="translate(0,0)"/>
<path d="M0 0 C23.1 0 46.2 0 70 0 C70 155.1 70 310.2 70 470 C47.56 470 25.12 470 2 470 C2 458.78 2 447.56 2 436 C-4.32205491 441.49196002 -4.32205491 441.49196002 -10.0625 447.3125 C-24.07825774 461.40013342 -43.24585895 469.4102621 -62 475 C-63.06347656 475.33451172 -63.06347656 475.33451172 -64.1484375 475.67578125 C-66.0916767 476.23159857 -68.01142246 476.6355454 -70 477 C-70.97195313 477.18433594 -71.94390625 477.36867188 -72.9453125 477.55859375 C-116.49030039 484.37719337 -163.80391315 475.61014737 -200 450 C-203.81685572 447.15344742 -207.4325038 444.15181449 -211 441 C-211.73428223 440.36408936 -211.73428223 440.36408936 -212.48339844 439.71533203 C-222.15854857 431.31936313 -230.18280669 422.05450908 -237.3515625 411.40234375 C-238.45664346 409.79185846 -239.62022417 408.22010109 -240.8359375 406.69140625 C-244.95642422 401.31239982 -244.95642422 401.31239982 -245.06640625 398 C-244.55052732 395.58952147 -243.79616926 393.33359955 -243 391 C-237.96823554 372.78154247 -234.34000556 353.93479225 -234 335 C-233.97953613 334.02724121 -233.95907227 333.05448242 -233.93798828 332.05224609 C-233.40180546 302.47356592 -236.97978189 274.79760351 -244.7890625 246.25390625 C-245.06447876 245.22172974 -245.06447876 245.22172974 -245.34545898 244.16870117 C-245.98544028 241.93027358 -245.98544028 241.93027358 -246.98461914 239.55981445 C-249.37080831 233.28542335 -249.37080831 233.28542335 -248.3359375 229.69799805 C-247.10143068 227.34588064 -245.723807 225.22921523 -244.1875 223.0625 C-243.66921631 222.28036133 -243.15093262 221.49822266 -242.61694336 220.69238281 C-241.10969909 218.4376965 -239.56143037 216.21735696 -238 214 C-237.30648437 212.97261719 -236.61296875 211.94523438 -235.8984375 210.88671875 C-216.16606704 182.54767607 -185.95803641 158.64955373 -151.75 150.875 C-148.13959071 150.03164185 -144.57128015 149.19751707 -141.0625 147.984375 C-108.94733062 137.66164199 -66.54507912 143.02641439 -36.625 157.8125 C-34.05046758 159.15350894 -31.51873549 160.5572163 -29 162 C-28.39462402 162.34401855 -27.78924805 162.68803711 -27.16552734 163.04248047 C-17.25905518 168.77471213 -9.07481809 175.92518191 -1 184 C-0.67 123.28 -0.34 62.56 0 0 Z " fill="#A3D496" transform="translate(1218,657)"/>
<path d="M0 0 C36.84735822 13.75539678 72.27449397 41.99281379 101.8828125 67.3515625 C104.7114441 69.76938975 107.59826885 72.10770426 110.5 74.4375 C119.96423251 82.16730606 128.71846053 90.63564346 137.375 99.25 C138.02879639 99.89912354 138.68259277 100.54824707 139.35620117 101.21704102 C143.77228501 105.64774578 147.93181805 110.24929475 152 115 C152.46792969 115.54092285 152.93585938 116.0818457 153.41796875 116.63916016 C167.81790998 133.31305661 180.87699906 150.95867399 192 170 C192.60231445 171.01827881 192.60231445 171.01827881 193.21679688 172.05712891 C204.46609611 191.21899914 214.38702033 211.87683754 219.43164062 233.6015625 C220.08538528 236.36032 220.79975631 239.10047047 221.515625 241.84375 C227.1079638 263.59041455 229.26329975 284.15017604 229.3125 306.5625 C229.31814972 307.9783136 229.31814972 307.9783136 229.32391357 309.42272949 C229.3608924 327.73321012 228.93476577 346.26227415 224 364 C223.67338379 365.22090332 223.34676758 366.44180664 223.01025391 367.69970703 C222.30700207 370.32591245 221.60133383 372.95144633 220.89257812 375.57617188 C220.7154126 376.23286865 220.53824707 376.88956543 220.35571289 377.56616211 C219.99274501 378.90008948 219.62520705 380.23278148 219.25317383 381.56420898 C215.16157255 395.84636831 215.16157255 395.84636831 217.21484375 410.2265625 C217.78332031 411.01804687 218.35179687 411.80953125 218.9375 412.625 C219.57816406 413.5221875 220.21882813 414.419375 220.87890625 415.34375 C224.4019915 419.75571679 228.09575418 423.92282336 232 428 C232.66386719 428.73863281 233.32773437 429.47726562 234.01171875 430.23828125 C246.87697953 444.03474186 265.50608099 454.43711686 283 461 C283.79132324 461.30848877 284.58264648 461.61697754 285.39794922 461.93481445 C292.09170617 464.47863358 298.74275509 466.24428598 305.75 467.6875 C307.23306641 468.00557617 307.23306641 468.00557617 308.74609375 468.33007812 C318.11750678 470.31321426 326.91882842 471.14082535 336.49609375 471.09765625 C337.68477554 471.0962413 338.87345734 471.09482635 340.09815979 471.09336853 C343.87796594 471.08779114 347.65771189 471.07524275 351.4375 471.0625 C354.0071606 471.05748208 356.57682213 471.05291968 359.14648438 471.04882812 C365.43100997 471.03782911 371.71550068 471.0211135 378 471 C374.20400691 474.79599309 368.32761043 475.78113019 363.3125 477.4375 C362.08039795 477.84492432 360.8482959 478.25234863 359.57885742 478.67211914 C351.07452612 481.43402279 342.84618849 483.65766347 334 485 C332.87198975 485.17499023 331.74397949 485.34998047 330.58178711 485.53027344 C320.20465429 486.98724464 309.98045836 487.34084846 299.5078125 487.31567383 C296.73919162 487.31248756 293.97161692 487.33617334 291.203125 487.36132812 C278.63042222 487.40803228 267.51896668 486.41394444 256.25 480.375 C255.58444092 480.02872559 254.91888184 479.68245117 254.2331543 479.32568359 C252.14731149 478.23173577 250.07359234 477.11696208 248 476 C247.31824707 475.64099609 246.63649414 475.28199219 245.93408203 474.91210938 C236.18271246 469.76883533 227.57461166 463.90732606 219 457 C217.67192694 456.01371045 216.33929858 455.03349147 215 454.0625 C205.17735604 446.65492759 196.32106163 438.50060112 187.625 429.8125 C186.78098633 428.96929199 185.93697266 428.12608398 185.06738281 427.25732422 C180.18014334 422.32653509 175.52565724 417.26216836 171 412 C169.54554483 410.39231627 168.08779105 408.78760285 166.625 407.1875 C161.89423907 401.93819023 157.43002948 396.50376055 153 391 C152.07461592 389.86686303 151.14881607 388.73406551 150.22265625 387.6015625 C142.94314031 378.65528676 136.10398765 369.43772043 129.43847656 360.02636719 C128.21633025 358.30474221 126.980686 356.59271181 125.7421875 354.8828125 C113.64859896 337.91500196 103.02020067 319.69975542 93.23828125 301.32080078 C92.02612004 299.04895447 90.79602365 296.78764694 89.5625 294.52734375 C77.25624311 271.79594687 67.08852809 248.1764665 58 224 C57.59265625 222.93152832 57.1853125 221.86305664 56.765625 220.76220703 C49.11921995 200.65005155 43.13629721 180.12443478 39 159 C39.55761944 169.85129419 40.737722 180.50374297 42.3125 191.25 C42.47865311 192.39986893 42.47865311 192.39986893 42.64816284 193.57296753 C44.22552263 204.45500801 46.01238862 215.2337619 48.52929688 225.94335938 C49.01741819 228.07610521 49.45862425 230.21459595 49.890625 232.359375 C53.99706001 252.43871562 61.13595513 271.72926644 68 291 C68.27199219 291.77134277 68.54398438 292.54268555 68.82421875 293.33740234 C71.71532811 301.50625385 74.98357154 309.30862935 78.9765625 317.015625 C80.52294281 320.01532362 81.97416701 323.04983098 83.3984375 326.109375 C96.80250893 354.88190763 113.21389462 381.44293085 132 407 C132.70898438 407.97195313 133.41796875 408.94390625 134.1484375 409.9453125 C140.48490506 418.5235628 147.19568772 426.79036064 154 435 C154.74056641 435.89356201 154.74056641 435.89356201 155.49609375 436.80517578 C166.4289807 449.92686226 178.13932252 462.39881404 190.375 474.3125 C192 476 192 476 192 477 C179.7173089 477.50942037 168.10027767 475.97223685 156 474 C154.55850586 473.77521973 154.55850586 473.77521973 153.08789062 473.54589844 C141.14805152 471.68252395 129.56500919 469.43742695 118.07128906 465.67529297 C115.91556947 464.9724735 113.75176636 464.2998681 111.5859375 463.62890625 C82.13360835 454.34730804 55.02221839 439.60365149 32 419 C31.44683105 418.50854492 30.89366211 418.01708984 30.32373047 417.51074219 C8.83086619 398.34159739 -9.28761974 374.7189074 -21.5625 348.625 C-22.04428711 347.6055127 -22.52607422 346.58602539 -23.02246094 345.53564453 C-29.4027922 331.96495356 -34.44967414 318.27702912 -39 304 C-39.27521484 303.15791992 -39.55042969 302.31583984 -39.83398438 301.44824219 C-44.77075496 286.22553678 -47.16775362 270.8720493 -49 255 C-49.08720306 254.30036133 -49.17440613 253.60072266 -49.26425171 252.87988281 C-51.13189019 237.79582141 -51.35663684 222.81125246 -51.3125 207.625 C-51.31076279 205.77513992 -51.31076279 205.77513992 -51.30899048 203.88790894 C-51.27468835 185.41703891 -50.76920892 167.28525936 -48 149 C-47.88253418 148.1946582 -47.76506836 147.38931641 -47.64404297 146.55957031 C-47.02584302 142.43283819 -46.2865416 138.34439095 -45.45214844 134.25488281 C-44.92376647 131.61982028 -44.43505467 128.97845009 -43.9453125 126.3359375 C-40.37730483 107.41278066 -35.55233216 88.87859023 -29.8125 70.5 C-29.58699463 69.7776416 -29.36148926 69.0552832 -29.12915039 68.31103516 C-27.64091896 63.67821883 -25.91442337 59.17214903 -24.08227539 54.66503906 C-22.94733433 51.8703139 -21.84087878 49.0654457 -20.73828125 46.2578125 C-16.70955519 36.05115498 -12.61898866 25.88714017 -8.125 15.875 C-7.58999878 14.67834717 -7.58999878 14.67834717 -7.04418945 13.45751953 C-4.93025973 8.81135598 -2.59893017 4.39370706 0 0 Z " fill="#C2E8A6" transform="translate(729,673)"/>
<path d="M0 0 C1.27149902 0.01160156 2.54299805 0.02320313 3.85302734 0.03515625 C31.70996757 0.51956283 53.99503701 10.91834059 73.625 30.375 C74.37910156 31.11621094 75.13320312 31.85742188 75.91015625 32.62109375 C89.0546333 46.44500699 96.46321322 65.06713988 100.625 83.375 C100.851875 84.35855469 101.07875 85.34210938 101.3125 86.35546875 C107.0046999 115.01411408 99.23470346 144.98918812 83.4375 169.0625 C69.17518364 188.77087209 50.21329582 200.59775963 26.625 206.375 C25.90828125 206.55595215 25.1915625 206.7369043 24.453125 206.92333984 C17.21303537 208.58424948 10.15400204 208.67281917 2.75 208.625 C1.56019531 208.63273437 0.37039063 208.64046875 -0.85546875 208.6484375 C-11.65887844 208.62482349 -21.87574911 207.27245332 -32.125 203.8125 C-32.88232422 203.55710449 -33.63964844 203.30170898 -34.41992188 203.03857422 C-46.61516847 198.71540499 -57.78593549 192.06560021 -67.375 183.375 C-68.61830078 182.25351563 -68.61830078 182.25351563 -69.88671875 181.109375 C-80.37061109 171.15529651 -87.48402434 159.43358573 -93.375 146.375 C-93.77589844 145.49714844 -94.17679688 144.61929688 -94.58984375 143.71484375 C-105.46350368 117.16670044 -102.02675512 85.34363503 -91.30566406 59.49755859 C-87.09458327 49.89337801 -80.89546452 41.52833889 -74.375 33.375 C-73.92833984 32.81304932 -73.48167969 32.25109863 -73.02148438 31.67211914 C-69.42811504 27.29614851 -65.54271445 23.80457886 -61 20.4375 C-59.96649414 19.66708374 -59.96649414 19.66708374 -58.91210938 18.88110352 C-41.37457883 6.17513879 -21.68091855 -0.2555137 0 0 Z " fill="#F1FDF0" transform="translate(1119.375,864.625)"/>
<path d="M0 0 C10.18701026 6.26144261 16.14093205 15.45129294 19 27 C20.42376427 36.86465247 18.04364811 48.26940594 12.25 56.4375 C5.77382451 64.01738459 -1.11142893 69.16304771 -10.8125 71.75 C-23.96754189 72.78176799 -34.54216496 71.61119131 -45 63 C-52.82021675 55.53524765 -56.543675 48.08425865 -57.23828125 37.30078125 C-57.45617908 25.59164015 -55.86876293 16.37007209 -48.125 7.07421875 C-35.58742601 -5.16374409 -15.60283927 -8.61725437 0 0 Z " fill="#F0FBF0" transform="translate(1266,1335)"/>
<path d="M0 0 C1.0209375 0.52787109 1.0209375 0.52787109 2.0625 1.06640625 C11.82550159 6.66903784 17.45834373 14.37503118 21 25 C22.22773211 36.68140436 21.9763642 47.1491873 15 57 C14.49339844 57.75539063 13.98679687 58.51078125 13.46484375 59.2890625 C8.011828 66.44363353 -1.04483222 71.0192993 -9.82421875 72.74609375 C-22.20767816 74.19120122 -31.62948511 72.04261252 -41.875 64.8125 C-48.28187843 59.48700033 -53.39273669 51.30664451 -54.20336914 42.88793945 C-54.30456707 40.48429847 -54.32200856 38.09316521 -54.3125 35.6875 C-54.32861328 34.88376953 -54.34472656 34.08003906 -54.36132812 33.25195312 C-54.36946313 23.1401431 -50.89216634 14.29903958 -44.02734375 6.86328125 C-32.68307905 -3.96078789 -14.39408807 -7.46693319 0 0 Z " fill="#EFFBF0" transform="translate(1104,1334)"/>
<path d="M0 0 C44.52586207 0 44.52586207 0 56.8984375 11.8125 C64.28822097 19.5452692 66.59241953 27.44881626 66.47729492 38.02294922 C66.03634863 48.49883943 62.02670522 57.30016253 54.5 64.5625 C39.05370034 77.63244586 19.17334183 74 0 74 C0 49.58 0 25.16 0 0 Z " fill="#0E0E0E" transform="translate(554,1332)"/>
<path d="M0 0 C6.373125 -0.0825 12.74625 -0.165 19.3125 -0.25 C21.30063721 -0.28641602 23.28877441 -0.32283203 25.3371582 -0.36035156 C35.98892134 -0.4734304 44.57468321 0.1721517 53.9375 5.75 C59.78012671 12.12377459 60.65809858 18.07259425 60.3828125 26.65234375 C59.68752042 32.73260208 57.60275762 36.80401965 53.0625 40.875 C48.77253429 43.8517109 46.24236278 45 41 45 C41.67804687 45.85980469 42.35609375 46.71960937 43.0546875 47.60546875 C45.52383044 50.73932944 47.98658172 53.87815472 50.44677734 57.01904297 C51.46380271 58.31614197 52.48230237 59.61208669 53.50244141 60.90673828 C54.90214847 62.6842112 56.29553295 64.46646281 57.6875 66.25 C58.1211084 66.79809326 58.5547168 67.34618652 59.00146484 67.91088867 C62 71.77182356 62 71.77182356 62 74 C57.24949358 75.34939634 53.72674202 75.53352205 49 74 C42.76542595 68.27886146 37.85874299 60.25066726 33.8293457 52.84985352 C32.24857318 50.15631617 30.89869155 48.26216053 27.83154297 47.36743164 C25.24776181 47.08592127 22.78775163 47.0308463 20.1875 47.0625 C17.155625 47.041875 14.12375 47.02125 11 47 C11 55.91 11 64.82 11 74 C7.37 74 3.74 74 0 74 C0 49.58 0 25.16 0 0 Z " fill="#0F0E0E" transform="translate(718,1332)"/>
<path d="M0 0 C3.96 0 7.92 0 12 0 C17.40096679 10.47460225 22.11451641 21.19670735 26.8125 32 C28.33825285 35.50069566 29.86613162 39.00045927 31.39453125 42.5 C31.95553024 43.78729004 31.95553024 43.78729004 32.52786255 45.10058594 C34.514347 49.64781501 36.52746001 54.18119915 38.57958984 58.69921875 C38.99738205 59.61960937 39.41517426 60.54 39.84562683 61.48828125 C40.64940185 63.25417647 41.45649199 65.01856747 42.26728821 66.78125 C42.62598495 67.56886719 42.9846817 68.35648438 43.35424805 69.16796875 C43.67282272 69.86172607 43.9913974 70.5554834 44.31962585 71.27026367 C45 73 45 73 45 75 C41.04 75 37.08 75 33 75 C30.69 69.39 28.38 63.78 26 58 C6.2 57.505 6.2 57.505 -14 57 C-14.99 59.97 -15.98 62.94 -17 66 C-18.24983582 69.04725857 -19.6221012 72.00663365 -21 75 C-24.96 75 -28.92 75 -33 75 C-31.71933814 70.99081074 -30.25966414 67.16883739 -28.5234375 63.3359375 C-28.02497314 62.23048584 -27.52650879 61.12503418 -27.01293945 59.98608398 C-26.47241943 58.79442627 -25.93189941 57.60276855 -25.375 56.375 C-24.2081998 53.79101129 -23.04357474 51.20604385 -21.87890625 48.62109375 C-21.57178207 47.94013138 -21.2646579 47.25916901 -20.94822693 46.55757141 C-18.49824351 41.1205667 -16.07116208 35.6735898 -13.65234375 30.22265625 C-13.10951752 28.9994165 -13.10951752 28.9994165 -12.5557251 27.75146484 C-11.11898791 24.51271422 -9.68286877 21.27369123 -8.24798584 18.03411865 C-7.24552273 15.77110063 -6.24196671 13.50856984 -5.23828125 11.24609375 C-4.79064674 10.23386497 -4.79064674 10.23386497 -4.33396912 9.20118713 C-2.95449034 6.09319103 -1.5214824 3.0429648 0 0 Z " fill="#0E0E0E" transform="translate(926,1331)"/>
<path d="M0 0 C3.96 0 7.92 0 12 0 C15.04452572 3.421467 16.83746037 6.07522989 19 10 C20.45362039 12.2323814 21.92021833 14.45102753 23.40234375 16.6640625 C24.15621341 17.81515336 24.90815856 18.96750683 25.65820312 20.12109375 C26.21906616 20.98323486 26.21906616 20.98323486 26.79125977 21.86279297 C27.16951904 22.44432129 27.54777832 23.02584961 27.9375 23.625 C28.72445607 24.83213121 29.51156457 26.03916306 30.29882812 27.24609375 C32.20097141 30.16292307 34.10106938 33.08107784 36 36 C38.74474426 33.38682016 40.94360746 30.80861195 42.98828125 27.62109375 C43.52678711 26.78682861 44.06529297 25.95256348 44.62011719 25.09301758 C45.17860352 24.21669678 45.73708984 23.34037598 46.3125 22.4375 C46.88774414 21.54377686 47.46298828 20.65005371 48.05566406 19.72924805 C51.67256457 14.10324202 55.26985316 8.46407034 58.828125 2.80078125 C60 1 60 1 61 0 C64.96 0 68.92 0 73 0 C73 24.09 73 48.18 73 73 C69.7 73 66.4 73 63 73 C62.67 55.18 62.34 37.36 62 19 C59.545625 22.691875 57.09125 26.38375 54.5625 30.1875 C48.79370932 38.85268604 42.98760837 47.48429031 37 56 C31.89527607 51.48391153 28.63041041 46.01088872 25.0625 40.25 C19.92512833 32.0215576 19.92512833 32.0215576 14.68359375 23.859375 C14.2136499 23.13717773 13.74370605 22.41498047 13.25952148 21.67089844 C12.08759251 19.85836226 12.08759251 19.85836226 10 19 C10 37.15 10 55.3 10 74 C6.7 74 3.4 74 0 74 C0 49.58 0 25.16 0 0 Z " fill="#090909" transform="translate(800,1332)"/>
<path d="M0 0 C0.66 0 1.32 0 2 0 C9.46613417 16.92197414 15.15843286 33.63750018 19.25 51.6875 C19.49637207 52.76708984 19.74274414 53.84667969 19.99658203 54.95898438 C23.18244102 69.56946139 24.35307356 83.77178001 24.31567383 98.68041992 C24.31251538 101.29974138 24.33608003 103.91792631 24.36132812 106.53710938 C24.40516281 118.28776508 23.21132603 129.4663923 21 141 C20.81622803 141.98379639 20.63245605 142.96759277 20.44311523 143.98120117 C20.01750678 146.14325678 19.55708668 148.29031529 19.0625 150.4375 C18.80992432 151.54702026 18.80992432 151.54702026 18.55224609 152.67895508 C15.85232483 164.21578145 11.48155318 175.06501024 7 186 C4 186 4 186 2.32421875 184.34765625 C-1.94415137 178.38823735 -1.94415137 178.38823735 -2.08203125 174.9609375 C-1.54277457 172.57345923 -0.79051431 170.31702472 0 168 C5.03176446 149.78154247 8.65999444 130.93479225 9 112 C9.02046387 111.02724121 9.04092773 110.05448242 9.06201172 109.05224609 C9.57056479 80.99776858 6.49573865 54.72085577 -0.625 27.5625 C-0.92978271 26.39738892 -0.92978271 26.39738892 -1.24072266 25.20874023 C-2.33322079 21.14548414 -3.65569377 17.29762536 -5.1875 13.375 C-6.1531964 10.36117826 -6.1555503 9.37153021 -4.9140625 6.40625 C-3.41895706 4.04325408 -1.9747205 1.97950191 0 0 Z " fill="#89BF7C" transform="translate(975,880)"/>
<path d="M0 0 C10.18701026 6.26144261 16.14093205 15.45129294 19 27 C20.42376427 36.86465247 18.04364811 48.26940594 12.25 56.4375 C5.77382451 64.01738459 -1.11142893 69.16304771 -10.8125 71.75 C-23.96754189 72.78176799 -34.54216496 71.61119131 -45 63 C-52.82021675 55.53524765 -56.543675 48.08425865 -57.23828125 37.30078125 C-57.45617908 25.59164015 -55.86876293 16.37007209 -48.125 7.07421875 C-35.58742601 -5.16374409 -15.60283927 -8.61725437 0 0 Z M-40.78515625 16.23828125 C-45.69318793 23.35571626 -46.86492609 30.51136824 -46 39 C-43.85963075 47.54858322 -38.98844671 54.41380191 -31.75 59.4375 C-25.80862496 62.81328127 -19.13938299 63.09942012 -12.55859375 61.3515625 C-4.51817348 58.07946103 1.70308656 52.83311434 5.30859375 44.89453125 C8.01713945 37.47280999 8.42931805 28.25008572 5.1640625 20.94140625 C1.40145487 14.66618481 -3.4167725 9.19697602 -10.3828125 6.59375 C-22.8053466 3.77550346 -32.88080342 6.144357 -40.78515625 16.23828125 Z " fill="#100F0F" transform="translate(1266,1335)"/>
<path d="M0 0 C1.0209375 0.52787109 1.0209375 0.52787109 2.0625 1.06640625 C11.82550159 6.66903784 17.45834373 14.37503118 21 25 C22.22773211 36.68140436 21.9763642 47.1491873 15 57 C14.49339844 57.75539063 13.98679687 58.51078125 13.46484375 59.2890625 C8.011828 66.44363353 -1.04483222 71.0192993 -9.82421875 72.74609375 C-22.20767816 74.19120122 -31.62948511 72.04261252 -41.875 64.8125 C-48.28187843 59.48700033 -53.39273669 51.30664451 -54.20336914 42.88793945 C-54.30456707 40.48429847 -54.32200856 38.09316521 -54.3125 35.6875 C-54.32861328 34.88376953 -54.34472656 34.08003906 -54.36132812 33.25195312 C-54.36946313 23.1401431 -50.89216634 14.29903958 -44.02734375 6.86328125 C-32.68307905 -3.96078789 -14.39408807 -7.46693319 0 0 Z M-33 12 C-33.95132812 12.88945313 -33.95132812 12.88945313 -34.921875 13.796875 C-41.00334035 20.07938052 -43.08299629 26.28539372 -43.4375 34.9375 C-43.19703622 43.15508824 -40.51445665 50.44537324 -34.8125 56.4609375 C-28.56064376 61.76962577 -22.12808674 63.88140434 -13.953125 63.47265625 C-5.65023106 62.14375391 0.12258388 57.80156414 5.37109375 51.38671875 C9.84734814 44.82798629 10.88741976 37.81422397 10 30 C8.27151358 21.32875981 3.79530238 14.64574641 -3.375 9.5 C-12.38386702 4.51782354 -25.38782495 4.67239224 -33 12 Z " fill="#0E0E0D" transform="translate(1104,1334)"/>
<path d="M0 0 C-1.31224548 3.93673644 -2.91910327 6.22719294 -6 9 C-6.54269531 8.72414063 -7.08539062 8.44828125 -7.64453125 8.1640625 C-17.3226702 3.38116796 -24.89399627 0.10286413 -35.5625 3.125 C-42.24821249 5.65693649 -47.32209283 9.21811765 -51 15.4375 C-54.50969743 23.28689088 -54.19509975 32.73062796 -51.9375 40.9375 C-49.24126099 47.61510129 -44.07862186 53.48524943 -37.421875 56.375 C-27.69216207 58.88589366 -18.99280306 56.8887797 -10 53 C-9.67 47.39 -9.34 41.78 -9 36 C-15.6 36 -22.2 36 -29 36 C-29 32.7 -29 29.4 -29 26 C-18.77 26 -8.54 26 2 26 C2.23064225 30.45395811 2.42900981 34.88709142 2.54931641 39.34228516 C2.59943968 40.85406764 2.66756841 42.36536913 2.75439453 43.87548828 C3.02734285 48.74681294 3.10370575 53.22596305 2 58 C-0.91769518 61.19159988 -3.95814322 62.59854841 -8 64 C-9.28946533 64.49330811 -9.28946533 64.49330811 -10.60498047 64.99658203 C-21.5358066 69.03670821 -33.16057484 69.60588992 -44 65 C-53.88348422 60.16090535 -60.05339067 54.10708605 -64.08203125 43.78125 C-66.47723632 33.91504358 -67.17019526 20.38864614 -62.44921875 11.12890625 C-56.19240813 1.93763458 -48.95927398 -4.05569178 -38.75 -8.375 C-24.65943998 -10.72342667 -11.69408517 -8.34273149 0 0 Z " fill="#101010" transform="translate(1367,1339)"/>
<path d="M0 0 C18.48 0 36.96 0 56 0 C56 3.3 56 6.6 56 10 C41.15 10 26.3 10 11 10 C11 17.26 11 24.52 11 32 C24.2 32 37.4 32 51 32 C51 35.3 51 38.6 51 42 C37.8 42 24.6 42 11 42 C11 48.93 11 55.86 11 63 C25.85 63 40.7 63 56 63 C56 66.63 56 70.26 56 74 C37.52 74 19.04 74 0 74 C0 49.58 0 25.16 0 0 Z " fill="#131312" transform="translate(641,1332)"/>
<path d="M0 0 C28.84070796 0 28.84070796 0 38 9 C43.4649143 15.20771819 43.82668479 22.25394771 43.4140625 30.18359375 C42.45415193 39.03107141 38.80169546 44.40505696 32 50 C22 54 22 54 0 54 C0 36.18 0 18.36 0 0 Z " fill="#EEFAEF" transform="translate(565,1342)"/>
<path d="M0 0 C2.84834248 1.51197729 5.35857189 3.13546251 8 5 C6.27845212 8.76488042 4.00765886 11.15063897 1 14 C0.175 13.401875 -0.65 12.80375 -1.5 12.1875 C-8.2916473 7.72849792 -14.86347939 5.99145306 -23 7 C-27.12546455 8.50016893 -29.96026584 10.03385024 -32 14 C-32.66680368 16.95720628 -32.66680368 16.95720628 -32 20 C-28.40639989 24.41713347 -24.86631979 26.07891543 -19.5 27.5 C-18.07342761 27.91788153 -16.64765392 28.33849848 -15.22265625 28.76171875 C-14.51383301 28.96845215 -13.80500977 29.17518555 -13.07470703 29.38818359 C-3.68434658 32.15733437 3.43215738 34.59255765 9 43 C11.34561064 47.69122128 10.64194318 54.38017782 9.421875 59.359375 C6.94635187 65.16560198 2.51154936 68.20748166 -3 71 C-12.89674726 74.62880733 -24.34160957 74.1904952 -34 70 C-39.23911633 67.32805067 -43.67013886 64.95731739 -47 60 C-45.02 57.69 -43.04 55.38 -41 53 C-37.57133684 54.71433158 -34.89126377 56.48878303 -31.87890625 58.78125 C-27.33538382 61.72839968 -23.44282897 62.2949745 -18.0625 62.3125 C-16.28552734 62.33763672 -16.28552734 62.33763672 -14.47265625 62.36328125 C-9.84734458 61.8794185 -6.47640335 60.4271899 -3.125 57.1875 C-1.5679937 54.15998775 -1.45092799 52.36306604 -2 49 C-6.04202856 42.71240001 -13.16403091 41.88868497 -20 40 C-29.74859073 37.06159499 -36.72829276 34.24281523 -43 26 C-45.16917905 21.6616419 -44.59599152 15.52944432 -43.50390625 10.89453125 C-40.8759493 4.16874313 -36.12992509 0.76984771 -29.8671875 -2.203125 C-20.05723137 -6.38980084 -9.51795138 -3.87401662 0 0 Z " fill="#0F0F0F" transform="translate(1471,1334)"/>
<path d="M0 0 C19.8 0 39.6 0 60 0 C60 3.3 60 6.6 60 10 C52.08 10 44.16 10 36 10 C36 31.12 36 52.24 36 74 C32.04 74 28.08 74 24 74 C24 52.88 24 31.76 24 10 C16.08 10 8.16 10 0 10 C0 6.7 0 3.4 0 0 Z " fill="#121212" transform="translate(975,1332)"/>
<path d="M0 0 C19.47 0 38.94 0 59 0 C59 3.3 59 6.6 59 10 C51.08 10 43.16 10 35 10 C35 31.12 35 52.24 35 74 C31.37 74 27.74 74 24 74 C24 52.88 24 31.76 24 10 C16.08 10 8.16 10 0 10 C0 6.7 0 3.4 0 0 Z " fill="#0D0C0C" transform="translate(1494,1332)"/>
<path d="M0 0 C3.63 0 7.26 0 11 0 C11 20.79 11 41.58 11 63 C24.53 63 38.06 63 52 63 C52 66.63 52 70.26 52 74 C34.84 74 17.68 74 0 74 C0 49.58 0 25.16 0 0 Z " fill="#131312" transform="translate(1147,1332)"/>
<path d="M0 0 C4.0209236 -0.09219952 8.03913024 -0.17171538 12.06054688 -0.21972656 C13.42623368 -0.23975319 14.79183569 -0.26698332 16.15722656 -0.30175781 C18.12787102 -0.35066432 20.09915983 -0.37091347 22.0703125 -0.390625 C23.84559326 -0.4220459 23.84559326 -0.4220459 25.65673828 -0.45410156 C30.58965234 0.21591597 33.7211161 2.46533932 36.875 6.25 C38.65690046 10.60575668 38.85900524 14.55887211 37.30859375 18.96484375 C35.02669084 23.48091101 32.58114519 25.1525655 28 27 C24.74853516 27.34057617 24.74853516 27.34057617 21.2890625 27.29296875 C20.04511719 27.28330078 18.80117188 27.27363281 17.51953125 27.26367188 C16.23433594 27.23853516 14.94914063 27.21339844 13.625 27.1875 C11.66240234 27.16719727 11.66240234 27.16719727 9.66015625 27.14648438 C6.43992699 27.11122639 3.21991029 27.05742244 0 27 C0 18.09 0 9.18 0 0 Z " fill="#F1FCF2" transform="translate(729,1342)"/>
<path d="M0 0 C3.63 0 7.26 0 11 0 C11 24.42 11 48.84 11 74 C7.37 74 3.74 74 0 74 C0 49.58 0 25.16 0 0 Z " fill="#11100F" transform="translate(1392,1332)"/>
<path d="M0 0 C2.7583326 3.31030577 4.28774579 6.72384793 5.91796875 10.69921875 C6.18007645 11.33487259 6.44218414 11.97052643 6.7122345 12.6254425 C7.26193962 13.96151123 7.80890558 15.29870988 8.35327148 16.63696289 C9.18989639 18.69339035 10.03462164 20.74634013 10.88085938 22.79882812 C15 32.83234712 15 32.83234712 15 34 C5.1 34 -4.8 34 -15 34 C-11.62229102 23.86687307 -11.62229102 23.86687307 -9.3359375 18.90625 C-8.61277344 17.33230469 -8.61277344 17.33230469 -7.875 15.7265625 C-7.38 14.66179687 -6.885 13.59703125 -6.375 12.5 C-5.87226562 11.40429688 -5.36953125 10.30859375 -4.8515625 9.1796875 C-1.14174107 1.14174107 -1.14174107 1.14174107 0 0 Z " fill="#EDF8F0" transform="translate(932,1344)"/>
<path d="M0 0 C0.66 0.33 1.32 0.66 2 1 C1.20335937 1.78503906 0.40671875 2.57007813 -0.4140625 3.37890625 C-5.83739894 8.74756507 -11.1619743 14.08685748 -16 20 C-16 15.91909491 -13.90772236 14.07863324 -11.375 11.125 C-10.73498047 10.34962891 -10.73498047 10.34962891 -10.08203125 9.55859375 C-7.01794937 5.92742806 -3.71894148 2.95552241 0 0 Z " fill="#E3FADE" transform="translate(1057,886)"/>
<path d="M0 0 C0.33 0 0.66 0 1 0 C1.53364887 2.05922133 2.05142189 4.12256107 2.5625 6.1875 C2.85253906 7.33605469 3.14257812 8.48460937 3.44140625 9.66796875 C3.98692951 12.9220341 4.01166762 14.8876018 3 18 C2.34 18.66 1.68 19.32 1 20 C0.11978631 13.28837062 -0.11381955 6.76594019 0 0 Z " fill="#E5FCD1" transform="translate(767,827)"/>
<path d="M0 0 C3.96 0 7.92 0 12 0 C12 0.33 12 0.66 12 1 C11.32453125 1.09796875 10.6490625 1.1959375 9.953125 1.296875 C3.04032595 2.37079086 3.04032595 2.37079086 -2 7 C-1.125 2.25 -1.125 2.25 0 0 Z " fill="#20221F" transform="translate(926,1331)"/>
<path d="M0 0 C0.66 0.33 1.32 0.66 2 1 C-0.52719217 4.45826297 -3.24449528 7.72318357 -6 11 C-6 7.39426104 -5.18292538 6.58663434 -3 3.8125 C-2.443125 3.09707031 -1.88625 2.38164063 -1.3125 1.64453125 C-0.879375 1.10183594 -0.44625 0.55914063 0 0 Z " fill="#AACFA1" transform="translate(989,859)"/>
<path d="M0 0 C-2.6855594 2.6855594 -5.37621328 3.06049974 -9 4 C-9.33 3.01 -9.66 2.02 -10 1 C-6.78548731 -0.60725635 -3.56387464 -0.05748185 0 0 Z " fill="#D0E4BF" transform="translate(1107,1144)"/>
</svg>
