<?xml version="1.0" encoding="UTF-8"?>
<svg version="1.1" xmlns="http://www.w3.org/2000/svg" width="2048" height="2048">
<path d="M0 0 C675.84 0 1351.68 0 2048 0 C2048 675.84 2048 1351.68 2048 2048 C1372.16 2048 696.32 2048 0 2048 C0 1372.16 0 696.32 0 0 Z " fill="#FEFEFE" transform="translate(0,0)"/>
<path d="M0 0 C2.94836896 -0.00968425 5.89603213 -0.04082333 8.84423828 -0.07226562 C26.31727807 -0.16952053 43.33105436 1.85400952 60.41064453 5.55273438 C61.39830811 5.76365723 62.38597168 5.97458008 63.40356445 6.19189453 C77.2416027 9.2252226 90.75603065 13.17180433 104.09814453 17.92773438 C104.91516846 18.21310059 105.73219238 18.4984668 106.57397461 18.79248047 C108.53493111 19.51700207 110.4481246 20.36833634 112.34814453 21.24023438 C113.73778998 25.40917072 112.36201028 28.54751147 111.16064453 32.61523438 C110.95117188 33.35128906 110.74169922 34.08734375 110.52587891 34.84570312 C109.52454887 38.33401607 108.48909343 41.80470227 107.37158203 45.2578125 C104.85392816 53.10054183 103.10606078 60.87469957 101.72314453 68.99023438 C101.51947266 70.12460937 101.31580078 71.25898437 101.10595703 72.42773438 C98.23937349 88.81871207 96.93737426 104.74018773 96.97314453 121.36523438 C96.97368835 122.32156769 96.97423218 123.277901 96.97479248 124.26321411 C97.03177788 146.19461566 98.45925092 167.42824473 105.41259766 188.38208008 C107.9979625 196.88889908 107.59107223 205.19410492 107.39013672 214.00512695 C106.96981536 236.89538914 114.84456949 260.13575996 127.34814453 279.24023438 C127.74388672 279.8713916 128.13962891 280.50254883 128.54736328 281.15283203 C139.6288956 298.72558501 154.55144913 313.75316476 171.77001953 325.34179688 C172.62080078 325.96828125 173.47158203 326.59476563 174.34814453 327.24023438 C174.34814453 327.90023438 174.34814453 328.56023437 174.34814453 329.24023438 C183.58814453 329.24023438 192.82814453 329.24023438 202.34814453 329.24023438 C202.34814453 328.58023437 202.34814453 327.92023438 202.34814453 327.24023438 C201.63658203 326.98242188 200.92501953 326.72460938 200.19189453 326.45898438 C170.41895191 313.69915182 144.35874331 282.98098703 131.34814453 254.24023438 C130.93951172 253.37140625 130.53087891 252.50257813 130.10986328 251.60742188 C122.9505538 235.29857017 119.85675679 214.39497719 125.19580078 197.12304688 C132.89111391 177.87172116 144.63510065 166.43268099 163.35205078 157.86523438 C176.56349795 152.90448237 194.16726595 153.37086522 207.34814453 158.24023438 C208.11642578 158.51867187 208.88470703 158.79710937 209.67626953 159.08398438 C219.9499943 163.25094967 229.27591545 169.666248 236.34814453 178.24023438 C236.34814453 178.90023437 236.34814453 179.56023437 236.34814453 180.24023438 C237.06615234 179.50675781 237.78416016 178.77328125 238.52392578 178.01757812 C253.09894872 163.68446429 268.51469213 155.06645668 289.09814453 155.05273438 C290.04947266 155.04048828 291.00080078 155.02824219 291.98095703 155.015625 C308.54081694 154.98159789 323.60707246 160.87121714 335.59814453 172.40429688 C350.64298098 188.53190564 353.1485879 205.9750356 352.51416016 227.19726562 C350.86516762 257.42232883 328.75453334 285.62583825 307.34814453 305.24023438 C297.54665207 313.917438 286.61186983 320.63780129 275.34814453 327.24023438 C283.77232243 329.51162822 294.67577616 330.79178359 302.80029297 327.13720703 C308.19650889 323.81778636 312.75660481 319.57128674 317.34814453 315.24023438 C318.50100897 314.22447247 319.65831741 313.21372368 320.82080078 312.20898438 C346.05541809 290.15542581 364.77233514 257.79138347 368.34814453 224.24023438 C368.50503402 218.57423597 368.30767857 212.92044809 368.09423828 207.2578125 C367.95618176 200.19662738 368.85942195 194.67935963 371.328125 188.06469727 C372.84218164 183.87223166 373.66342464 179.61394534 374.47314453 175.24023438 C374.63854736 174.37648193 374.8039502 173.51272949 374.97436523 172.62280273 C375.44150925 170.16355569 375.89641382 167.70235125 376.34814453 165.24023438 C376.56599609 164.08652344 376.78384766 162.9328125 377.00830078 161.74414062 C379.33840645 148.74732902 379.58668631 135.65606767 379.59814453 122.49023438 C379.59915161 121.6806427 379.60015869 120.87105103 379.60119629 120.03692627 C379.58388281 99.33152711 377.15281187 79.3804096 372.34814453 59.24023438 C372.18701172 58.55171387 372.02587891 57.86319336 371.85986328 57.15380859 C369.6912667 47.93506924 367.1243478 38.85444156 364.39892578 29.78710938 C363.65517787 27.27661455 362.94562223 24.78772169 362.34814453 22.24023438 C370.77938836 18.12101962 379.38278413 14.95488952 388.34814453 12.24023438 C389.22792969 11.96920898 390.10771484 11.69818359 391.01416016 11.41894531 C419.30903605 2.83456771 446.52969211 -0.21550687 475.97314453 -0.25976562 C477.10433716 -0.26434784 478.23552979 -0.26893005 479.40100098 -0.27365112 C497.30181444 -0.30241019 514.70176175 1.26567782 532.34814453 4.24023438 C533.92999159 13.08486177 534.67579241 21.64422065 534.71923828 30.62304688 C534.73035141 31.86440903 534.74146454 33.10577118 534.75291443 34.38475037 C534.77984441 38.37831599 534.78676191 42.37160622 534.78564453 46.36523438 C534.78626137 47.04584301 534.7868782 47.72645164 534.78751373 48.42768478 C534.80201044 70.43307914 533.71584841 91.63099076 529.34814453 113.24023438 C528.87411349 115.75584568 528.40015478 118.27147061 527.92626953 120.78710938 C518.4067496 169.49742223 497.02043896 216.247418 466.34814453 255.24023438 C465.83622559 255.90168457 465.32430664 256.56313477 464.796875 257.24462891 C457.63391615 266.46491547 449.89769571 274.96523452 441.66064453 283.24023438 C440.37879272 284.53030396 440.37879272 284.53030396 439.07104492 285.84643555 C433.13360856 291.71785613 426.90287377 297.07099329 420.34814453 302.24023438 C419.59637939 302.83642578 418.84461426 303.43261719 418.07006836 304.046875 C398.59272926 319.28981707 377.48962998 330.59266945 354.34814453 339.24023438 C353.51863281 339.5507373 352.68912109 339.86124023 351.83447266 340.18115234 C321.27634955 351.3359972 278.02997988 355.83751504 246.74658203 344.63476562 C239.99412102 342.31208219 234.29983132 343.2569053 227.53564453 345.11523438 C226.11938012 345.48526697 224.70271301 345.85376178 223.28564453 346.22070312 C222.60759766 346.39778809 221.92955078 346.57487305 221.23095703 346.75732422 C176.20740514 358.305118 125.98490559 345.65965493 86.60668945 322.9206543 C66.21713184 310.78613899 48.34507438 296.35066925 31.53564453 279.67773438 C30.66383545 278.81535156 29.79202637 277.95296875 28.89379883 277.06445312 C22.95811037 271.09882353 17.5714517 264.83473377 12.34814453 258.24023438 C11.88126221 257.66362061 11.41437988 257.08700684 10.93334961 256.49291992 C-1.63187562 240.96961471 -12.52525671 223.99032912 -21.65185547 206.24023438 C-22.02084961 205.52287109 -22.38984375 204.80550781 -22.77001953 204.06640625 C-38.28122696 173.48131179 -48.48345678 141.11776739 -53.65185547 107.24023438 C-53.86600098 105.8412793 -53.86600098 105.8412793 -54.08447266 104.4140625 C-54.99826236 98.3645693 -55.89205577 92.31122206 -56.65185547 86.24023438 C-56.82604004 84.93248047 -57.00022461 83.62472656 -57.1796875 82.27734375 C-57.84686293 76.17573689 -57.81413867 70.07914818 -57.81982422 63.94726562 C-57.82315262 62.68363693 -57.82648102 61.42000824 -57.82991028 60.11808777 C-57.83495517 57.45295672 -57.83775419 54.78792779 -57.8371582 52.12280273 C-57.837057 48.74901383 -57.85068318 45.37543732 -57.86793041 42.00169849 C-57.88189166 38.73356282 -57.88114358 35.46542698 -57.88232422 32.19726562 C-57.88950974 31.00720413 -57.89669525 29.81714264 -57.90409851 28.59101868 C-57.88191821 20.29228417 -57.01798808 12.42251476 -55.65185547 4.24023438 C-52.65313214 3.75171285 -49.6532351 3.27444243 -46.65185547 2.80273438 C-45.42208984 2.60067383 -45.42208984 2.60067383 -44.16748047 2.39453125 C-29.54248879 0.12322572 -14.76711709 0.02915042 0 0 Z " fill="#A5D497" transform="translate(785.65185546875,811.759765625)"/>
<path d="M0 0 C3.50140006 1.36459398 6.20510281 3.46718738 9.0859375 5.8203125 C9.69904785 6.31313721 10.3121582 6.80596191 10.94384766 7.3137207 C17.43075482 12.5911056 23.57595114 18.1969422 29.5859375 24.0078125 C30.56578613 24.95479004 30.56578613 24.95479004 31.56542969 25.92089844 C39.76837265 33.89222889 47.61848308 41.9140832 54.5859375 51.0078125 C55.61139166 52.31686669 56.63748288 53.62542197 57.6640625 54.93359375 C69.33107093 69.8914287 79.32057317 85.4630159 88.5859375 102.0078125 C88.98167969 102.70600098 89.37742187 103.40418945 89.78515625 104.12353516 C99.20440959 120.8202065 106.65590948 138.78645369 112.5859375 157.0078125 C112.99199219 158.23113281 113.39804688 159.45445312 113.81640625 160.71484375 C126.09572643 199.10367722 134.78782189 255.83899327 119.5859375 295.0078125 C116.91199755 292.43226428 114.63766086 289.82287814 112.4609375 286.8203125 C100.3743055 271.23290125 81.94276183 261.25257418 62.48046875 258.2890625 C40.69860292 256.1726059 19.13150597 261.67905244 1.7421875 275.22265625 C0.67484375 276.10630859 0.67484375 276.10630859 -0.4140625 277.0078125 C-3.48189489 275.59135835 -5.98382074 273.86797972 -8.6640625 271.8203125 C-13.08632465 268.68404943 -17.59384933 266.36013767 -22.5390625 264.1953125 C-23.19551758 263.90567627 -23.85197266 263.61604004 -24.52832031 263.31762695 C-40.51064245 256.54129791 -61.71883447 256.24870485 -78.1796875 261.69140625 C-95.74469299 268.84044834 -108.85843146 278.17436595 -119.4140625 294.0078125 C-120.0740625 294.0078125 -120.7340625 294.0078125 -121.4140625 294.0078125 C-121.87918312 291.8217456 -122.33564517 289.63383676 -122.7890625 287.4453125 C-123.04429687 286.22714844 -123.29953125 285.00898437 -123.5625 283.75390625 C-126.14107925 269.89210806 -126.81949622 256.44745296 -126.7890625 242.3828125 C-126.78818634 241.39225861 -126.78731018 240.40170471 -126.78640747 239.38113403 C-126.69594828 208.270372 -122.24076287 177.00230373 -110.4140625 148.0078125 C-104.51745668 149.66317194 -99.38013053 152.51992759 -94.0390625 155.4453125 C-93.06606201 155.97809814 -92.09306152 156.51088379 -91.09057617 157.05981445 C-73.427825 166.88084431 -58.05291606 179.10803304 -43.4140625 193.0078125 C-42.8257666 193.56210937 -42.2374707 194.11640625 -41.63134766 194.6875 C-25.0362959 210.4215496 -12.42883329 228.66566192 -0.4140625 248.0078125 C0.215 246.90824219 0.8440625 245.80867187 1.4921875 244.67578125 C6.43772438 236.10319346 11.49986454 227.83452701 17.5859375 220.0078125 C18.55466797 218.75097656 18.55466797 218.75097656 19.54296875 217.46875 C30.18761457 203.90574961 42.00495311 191.63675775 55.5859375 181.0078125 C56.20887695 180.5137793 56.83181641 180.01974609 57.47363281 179.51074219 C67.44445505 171.61577306 77.66233838 164.52080632 88.5859375 158.0078125 C88.02278271 154.23522217 87.27850478 150.73430992 86.0234375 147.1328125 C85.61931641 145.96105469 85.61931641 145.96105469 85.20703125 144.765625 C85.00207031 144.18554688 84.79710937 143.60546875 84.5859375 143.0078125 C63.22099345 155.20284693 44.46836807 170.20836517 26.5859375 187.0078125 C25.92980469 187.62140625 25.27367187 188.235 24.59765625 188.8671875 C18.38420509 194.86638172 13.04257508 201.68668967 7.89453125 208.60546875 C7.22321167 209.50144775 7.22321167 209.50144775 6.53833008 210.41552734 C5.66604811 211.5850943 4.80229339 212.7610788 3.94799805 213.94384766 C2.89716619 215.35338001 1.74797602 216.6884583 0.5859375 218.0078125 C-0.4040625 218.0078125 -1.3940625 218.0078125 -2.4140625 218.0078125 C-4.0703125 216.05859375 -4.0703125 216.05859375 -5.9140625 213.3203125 C-10.29415036 207.06763662 -15.08934058 201.28726802 -20.09423828 195.52734375 C-21.28933369 194.15141445 -22.47529012 192.76756039 -23.66015625 191.3828125 C-33.20327727 180.45637669 -44.10553362 171.08916291 -55.64892578 162.34912109 C-57.36187758 161.04746727 -59.05802437 159.72611661 -60.75390625 158.40234375 C-73.94387918 148.27167784 -88.48395353 139.32388172 -103.4140625 132.0078125 C-102.79806097 128.21690233 -101.68920384 125.11271531 -100.04296875 121.6484375 C-99.55642822 120.62379395 -99.0698877 119.59915039 -98.56860352 118.54345703 C-98.04322998 117.45919434 -97.51785645 116.37493164 -96.9765625 115.2578125 C-96.16239868 113.57534424 -96.16239868 113.57534424 -95.33178711 111.85888672 C-78.96986971 78.4452214 -55.25604472 43.70203041 -26.42578125 19.70703125 C-23.90447851 17.57738719 -21.51547029 15.32079635 -19.1015625 13.0703125 C-4.70492603 0.0152263 -4.70492603 0.0152263 0 0 Z " fill="#93CB84" transform="translate(1024.4140625,692.9921875)"/>
<path d="M0 0 C2.43890197 0.86264866 3.91604785 1.9852587 5.859375 3.68359375 C6.47296875 4.20824219 7.0865625 4.73289062 7.71875 5.2734375 C9.109375 6.74609375 9.109375 6.74609375 9.109375 8.74609375 C9.70105469 9.01164063 10.29273438 9.2771875 10.90234375 9.55078125 C16.59685378 12.63488757 20.88059253 18.49496705 25.0546875 23.35546875 C26.5968803 25.14980714 28.15728875 26.92851584 29.7265625 28.69921875 C82.109375 88.14927172 82.109375 88.14927172 82.109375 114.74609375 C82.769375 115.07609375 83.429375 115.40609375 84.109375 115.74609375 C83.23539063 116.24496094 82.36140625 116.74382812 81.4609375 117.2578125 C61.10349654 129.06793618 43.21341849 143.67789337 26.109375 159.74609375 C25.12517578 160.66648437 25.12517578 160.66648437 24.12109375 161.60546875 C17.90764259 167.60466297 12.56601258 174.42497092 7.41796875 181.34375 C6.97042236 181.94106934 6.52287598 182.53838867 6.06176758 183.15380859 C5.18948561 184.32337555 4.32573089 185.49936005 3.47143555 186.68212891 C2.42060369 188.09166126 1.27141352 189.42673955 0.109375 190.74609375 C-0.880625 190.74609375 -1.870625 190.74609375 -2.890625 190.74609375 C-4.546875 188.796875 -4.546875 188.796875 -6.390625 186.05859375 C-10.77071286 179.80591787 -15.56590308 174.02554927 -20.57080078 168.265625 C-21.76589619 166.8896957 -22.95185262 165.50584164 -24.13671875 164.12109375 C-34.18011242 152.6218687 -45.73519662 142.92061799 -57.890625 133.74609375 C-58.50728027 133.2778418 -59.12393555 132.80958984 -59.75927734 132.32714844 C-68.18769902 125.94876587 -76.77854681 120.1088514 -85.890625 114.74609375 C-80.10095739 97.77322607 -19.96057456 -2.68065567 0 0 Z " fill="#B2DCA4" transform="translate(1024.890625,720.25390625)"/>
<path d="M0 0 C0.97839844 0.38285156 0.97839844 0.38285156 1.9765625 0.7734375 C18.72460018 8.04648972 26.8456094 25.07285425 33.22265625 41.06640625 C44.20208228 71.75035352 42.40089843 106.48694265 29.07763672 136.04638672 C28.41355973 137.37883009 27.71273891 138.69293962 27 140 C22.57400949 139.39038244 19.00370194 137.6724773 15.125 135.5625 C14.47225098 135.20905518 13.81950195 134.85561035 13.14697266 134.49145508 C0.74398514 127.64796628 -10.56120007 119.56996079 -21 110 C-21.81597656 109.25194092 -21.81597656 109.25194092 -22.6484375 108.48876953 C-40.55316179 91.83968759 -57.59766349 68.08679997 -59.203125 42.80078125 C-59.38608483 29.18552066 -56.25078304 18.32083111 -46.8125 8.25 C-34.5724018 -3.36188124 -15.53785689 -6.84618215 0 0 Z " fill="#FDFEFD" transform="translate(988,990)"/>
<path d="M0 0 C7.82337355 6.36074285 13.12540751 14.69966906 14.23242188 24.86328125 C15.99193744 50.20821337 6.23504466 71.56478192 -10.015625 90.5859375 C-10.44601074 91.09463379 -10.87639648 91.60333008 -11.31982422 92.12744141 C-26.02313275 109.32764105 -44.44242715 122.22328458 -65.015625 131.5859375 C-64.75288354 130.10531208 -64.47984264 128.62651465 -64.203125 127.1484375 C-64.05230469 126.32472656 -63.90148438 125.50101563 -63.74609375 124.65234375 C-63.13793042 122.09935866 -62.40444484 119.73540604 -61.546875 117.26171875 C-51.86550748 88.72108284 -55.43095606 53.40444559 -66.015625 25.5859375 C-66.593125 24.51214844 -67.170625 23.43835938 -67.765625 22.33203125 C-69.23662438 19.1004295 -69.22443044 17.88463323 -68.015625 14.5859375 C-61.07467934 3.19876288 -50.46488554 -4.61754566 -37.578125 -8.06640625 C-23.89769899 -9.92243966 -11.4321734 -8.02024568 0 0 Z " fill="#FDFEFD" transform="translate(1104.015625,995.4140625)"/>
<path d="M0 0 C9.69284156 7.00623873 16.81720396 16.96656559 18.96484375 28.8515625 C20.45486375 41.71063918 18.84222304 54.65721001 10.9375 65.2890625 C5.15834766 72.21869424 -0.31179553 76.90018534 -8.75 80.3125 C-9.64203125 80.67730469 -10.5340625 81.04210938 -11.453125 81.41796875 C-21.68734597 84.19478937 -34.6482293 83.74788644 -44.140625 78.98828125 C-55.61269098 71.62074187 -62.67917976 62.37906271 -66.05078125 49.19140625 C-68.72457217 34.35858845 -66.56468635 22.13041918 -58.0625 9.4375 C-43.9868978 -8.78110963 -19.27596539 -11.80899586 0 0 Z " fill="#FDFEFC" transform="translate(1042.75,1271.6875)"/>
<path d="M0 0 C9.70330592 5.93438982 16.41672798 14.50882049 19.6171875 25.35546875 C22.56720289 37.65714663 21.83952945 51.66155923 15.54296875 62.71484375 C8.18689536 73.96069581 -1.31535372 80.77766966 -14.45703125 83.71484375 C-28.2323378 84.67911521 -38.88311931 83.74055402 -49.83203125 74.46484375 C-59.50466243 65.04022875 -64.44785292 54.49071274 -64.87890625 40.88842773 C-64.97142441 26.90806638 -61.3942534 15.83323144 -51.70703125 5.40234375 C-37.65159807 -7.9005997 -16.57480267 -8.66949138 0 0 Z " fill="#FCFEFC" transform="translate(1246.45703125,1270.28515625)"/>
<path d="M0 0 C5.81392472 21.98776848 8.37921247 44.96716617 8.375 67.6875 C8.37661133 68.92008545 8.37822266 70.1526709 8.37988281 71.42260742 C8.27765603 79.77169591 7.36488628 87.7674897 6 96 C2.41895094 94.24512218 -0.95225475 92.23566449 -4.375 90.1875 C-24.15874541 78.69108186 -44.8892292 76.28087205 -67 82 C-71.04440243 83.22119944 -75.03392297 84.5450332 -79 86 C-78.48181512 80.83409535 -76.63152922 76.92407834 -74.0625 72.5 C-73.66208496 71.80221436 -73.26166992 71.10442871 -72.84912109 70.38549805 C-58.90956179 46.53042049 -40.19733392 27.23560608 -18 11 C-16.88230528 10.17125654 -15.76507276 9.34188915 -14.6484375 8.51171875 C-3.1023766 0 -3.1023766 0 0 0 Z " fill="#B2DCA3" transform="translate(1121,872)"/>
<path d="M0 0 C14.60084515 8.78525428 27.79746509 19.13162327 40 31 C40.78914795 31.75845215 40.78914795 31.75845215 41.59423828 32.53222656 C55.08832902 45.52714733 66.16842812 60.0433228 74.6875 76.75 C75.03876953 77.42949707 75.39003906 78.10899414 75.75195312 78.80908203 C78.12356161 83.62931516 78.12356161 83.62931516 77 87 C76.3709375 86.73445312 75.741875 86.46890625 75.09375 86.1953125 C74.2378125 85.84210938 73.381875 85.48890625 72.5 85.125 C71.6646875 84.77695312 70.829375 84.42890625 69.96875 84.0703125 C52.08501954 77.62275705 29.51228414 78.87468242 12.27734375 86.6484375 C5.91677842 89.64817287 -0.13375268 93.12827677 -6 97 C-8.40271757 86.2475982 -8.35644242 75.57797929 -8.3125 64.625 C-8.31067719 63.68902985 -8.30885437 62.75305969 -8.30697632 61.78872681 C-8.23652934 40.34416171 -5.36828385 20.75170595 0 0 Z " fill="#B2DCA3" transform="translate(927,871)"/>
<path d="M0 0 C10 0 10 0 12.8125 2.60546875 C13.57544912 3.7781808 14.30332107 4.97424678 15 6.1875 C15.83330125 7.48737087 16.66930497 8.7855127 17.5078125 10.08203125 C17.92063477 10.74154785 18.33345703 11.40106445 18.75878906 12.08056641 C20.6367493 14.98468194 22.73817709 17.65447627 24.875 20.375 C25.71083056 21.44959231 26.54544285 22.52513317 27.37890625 23.6015625 C27.80445801 24.15102539 28.23000977 24.70048828 28.66845703 25.26660156 C31.07955778 28.40536491 33.44377377 31.57921241 35.8125 34.75 C40.17700237 40.5866503 44.57360045 46.39763649 49 52.1875 C49.53987549 52.89422852 50.07975098 53.60095703 50.63598633 54.32910156 C53.38598041 57.92075394 56.17307552 61.4663444 59 65 C59.33 43.55 59.66 22.1 60 0 C63.3 0 66.6 0 70 0 C70 28.71 70 57.42 70 87 C62 87 62 87 59.99609375 85.515625 C59.48175781 84.76796875 58.96742188 84.0203125 58.4375 83.25 C57.78394531 82.34378906 57.13039063 81.43757813 56.45703125 80.50390625 C55.89556396 79.69590576 55.89556396 79.69590576 55.32275391 78.87158203 C53.1501064 75.79747429 50.86522767 72.80830282 48.59790039 69.80371094 C46.61215706 67.17046932 44.63724239 64.52938351 42.6640625 61.88671875 C39.80622598 58.0667877 36.9190609 54.27330114 34 50.5 C27.76119506 42.43058451 21.66731796 34.25198365 15.55883789 26.08374023 C14.04085243 24.05460853 12.52045912 22.02727882 11 20 C10.67 42.11 10.34 64.22 10 87 C6.7 87 3.4 87 0 87 C0 58.29 0 29.58 0 0 Z " fill="#66A25B" transform="translate(661,1266)"/>
<path d="M0 0 C9.69284156 7.00623873 16.81720396 16.96656559 18.96484375 28.8515625 C20.45486375 41.71063918 18.84222304 54.65721001 10.9375 65.2890625 C5.15834766 72.21869424 -0.31179553 76.90018534 -8.75 80.3125 C-9.64203125 80.67730469 -10.5340625 81.04210938 -11.453125 81.41796875 C-21.68734597 84.19478937 -34.6482293 83.74788644 -44.140625 78.98828125 C-55.61269098 71.62074187 -62.67917976 62.37906271 -66.05078125 49.19140625 C-68.72457217 34.35858845 -66.56468635 22.13041918 -58.0625 9.4375 C-43.9868978 -8.78110963 -19.27596539 -11.80899586 0 0 Z M-42.75 8.3125 C-43.68005859 9.03953125 -43.68005859 9.03953125 -44.62890625 9.78125 C-51.31383128 15.67206946 -55.53628907 23.20430798 -56.296875 32.11328125 C-56.83331797 44.0980082 -55.12706788 53.95041852 -47.6875 63.6875 C-41.55610533 70.01753596 -33.99890335 73.62318121 -25.1875 73.9375 C-15.90270639 73.43772044 -8.20909091 70.71864891 -1.46484375 64.22265625 C5.99758455 55.91029306 8.86221159 46.3570671 8.53515625 35.265625 C7.42894344 23.8095033 2.31216331 15.29315436 -6.45703125 8.01171875 C-16.40489283 0.63979407 -33.07804132 0.29683869 -42.75 8.3125 Z " fill="#65A35B" transform="translate(1042.75,1271.6875)"/>
<path d="M0 0 C-1.41791563 2.93446886 -2.98332607 5.43332409 -5 8 C-8.34653436 6.81252007 -11.31383119 5.27390808 -14.375 3.5 C-22.55913541 -1.06319392 -30.63823431 -2.3845165 -39.8359375 -0.3828125 C-49.08215514 2.54386143 -55.55596417 7.96816036 -60.5625 16.25 C-65.03660497 26.05813541 -64.6905395 39.06471911 -61.4375 49.25 C-57.5384788 57.87101918 -51.82513409 63.00967656 -43.24609375 66.9296875 C-33.86538221 70.02272596 -24.6899957 68.33806803 -16 64 C-13.55266686 62.44340793 -11.30605998 60.76634381 -9 59 C-8.34 59 -7.68 59 -7 59 C-7 53.06 -7 47.12 -7 41 C-15.58 41 -24.16 41 -33 41 C-33 37.7 -33 34.4 -33 31 C-21.12 31 -9.24 31 3 31 C3 46.18 3 61.36 3 77 C0.03 77 -2.94 77 -6 77 C-6.495 73.04 -6.495 73.04 -7 69 C-7.67546875 69.40992188 -8.3509375 69.81984375 -9.046875 70.2421875 C-9.93890625 70.78101563 -10.8309375 71.31984375 -11.75 71.875 C-12.63171875 72.40867187 -13.5134375 72.94234375 -14.421875 73.4921875 C-23.44968627 78.77208925 -33.53136214 79.22232908 -43.81640625 77.5390625 C-53.92767145 74.84905454 -63.30453537 68.17329922 -68.6953125 59.16796875 C-75.13941304 46.79342786 -77.20802919 33.91405808 -73.875 20.1875 C-70.09149797 8.55802603 -63.92222362 -0.56100607 -53.0859375 -6.6328125 C-34.51659404 -15.39193677 -16.31251699 -11.43160639 0 0 Z " fill="#62A159" transform="translate(1377,1276)"/>
<path d="M0 0 C9.70330592 5.93438982 16.41672798 14.50882049 19.6171875 25.35546875 C22.56720289 37.65714663 21.83952945 51.66155923 15.54296875 62.71484375 C8.18689536 73.96069581 -1.31535372 80.77766966 -14.45703125 83.71484375 C-28.2323378 84.67911521 -38.88311931 83.74055402 -49.83203125 74.46484375 C-59.50466243 65.04022875 -64.44785292 54.49071274 -64.87890625 40.88842773 C-64.97142441 26.90806638 -61.3942534 15.83323144 -51.70703125 5.40234375 C-37.65159807 -7.9005997 -16.57480267 -8.66949138 0 0 Z M-48.34765625 18.05859375 C-54.7047824 27.06966576 -55.84498134 36.62041212 -53.9921875 47.42578125 C-51.2110585 57.85912908 -45.78075909 66.12991526 -36.45703125 71.71484375 C-29.12229326 75.37567555 -21.15945909 76.12906401 -13.30078125 73.765625 C-3.13887814 69.77883876 3.76783147 64.14570437 8.29296875 54.08984375 C11.94164413 44.23842022 11.7480414 33.36270856 7.54296875 23.71484375 C2.49700938 14.15738799 -4.3789183 7.67902723 -14.73046875 4.37109375 C-28.82667435 0.97831074 -39.58143118 7.19137258 -48.34765625 18.05859375 Z " fill="#62A259" transform="translate(1246.45703125,1270.28515625)"/>
<path d="M0 0 C3.75071791 2.00563429 7.17370753 4.19425606 10.54296875 6.79296875 C9.17142371 9.74706576 7.55433151 12.23305251 5.54296875 14.79296875 C3.41350336 13.73314266 1.29060766 12.66304027 -0.82421875 11.57421875 C-10.26616662 6.75029523 -18.46846724 3.8761725 -29.17578125 6.4453125 C-39.5246371 10.16642888 -45.5818629 17.14384661 -50.45703125 26.79296875 C-53.58131304 36.16581413 -52.66136473 49.70140846 -48.640625 58.60546875 C-48.05474609 59.68828125 -48.05474609 59.68828125 -47.45703125 60.79296875 C-47.11800781 61.45296875 -46.77898437 62.11296875 -46.4296875 62.79296875 C-42.72502741 68.91027225 -36.11149974 72.57481259 -29.45703125 74.79296875 C-18.83387532 75.57843846 -9.41761269 75.16446536 -0.95703125 68.04296875 C-0.13203125 67.30046875 0.69296875 66.55796875 1.54296875 65.79296875 C2.20296875 65.79296875 2.86296875 65.79296875 3.54296875 65.79296875 C3.54296875 60.18296875 3.54296875 54.57296875 3.54296875 48.79296875 C-4.37703125 48.79296875 -12.29703125 48.79296875 -20.45703125 48.79296875 C-20.45703125 45.49296875 -20.45703125 42.19296875 -20.45703125 38.79296875 C-9.23703125 38.79296875 1.98296875 38.79296875 13.54296875 38.79296875 C13.54296875 53.64296875 13.54296875 68.49296875 13.54296875 83.79296875 C10.57296875 83.79296875 7.60296875 83.79296875 4.54296875 83.79296875 C4.04796875 79.83296875 4.04796875 79.83296875 3.54296875 75.79296875 C2.99769531 76.19128906 2.45242188 76.58960938 1.890625 77 C-9.22434047 84.80897574 -20.01455788 86.45932088 -33.39453125 84.32421875 C-45.02969457 81.26998838 -52.4618043 73.64896365 -58.7734375 63.72265625 C-64.89559809 52.56270301 -65.23059142 38.08428464 -61.89453125 26.04296875 C-58.09923461 15.20306887 -51.93854917 5.73385062 -41.609375 0.29296875 C-28.31695129 -5.87163355 -13.35645375 -6.56143753 0 0 Z " fill="#65A35B" transform="translate(508.45703125,1269.20703125)"/>
<path d="M0 0 C20.13 0 40.26 0 61 0 C61 3.3 61 6.6 61 10 C44.5 10 28 10 11 10 C11 19.57 11 29.14 11 39 C25.52 39 40.04 39 55 39 C55 41.97 55 44.94 55 48 C40.48 48 25.96 48 11 48 C11 57.9 11 67.8 11 78 C27.83 78 44.66 78 62 78 C62 80.97 62 83.94 62 87 C41.54 87 21.08 87 0 87 C0 58.29 0 29.58 0 0 Z " fill="#64A15A" transform="translate(776,1266)"/>
<path d="M0 0 C1.17248291 0.00640503 1.17248291 0.00640503 2.36865234 0.01293945 C12.9695633 0.32000781 21.68635031 4.58009335 30.3125 10.5 C28.6625 13.14 27.0125 15.78 25.3125 18.5 C22.9299145 17.57770884 20.5757756 16.62212785 18.2578125 15.546875 C9.73386712 11.59459583 0.40146448 8.2809502 -8.99609375 11.22265625 C-12.24046659 12.69304174 -14.34592 14.10504813 -16.6875 16.8125 C-18.31380819 21.18320326 -18.35035053 24.76001737 -16.6875 29.125 C-11.23062946 35.60503377 -4.07378553 37.43272679 3.80224609 39.62280273 C15.09463179 42.78046546 25.04134502 45.97341843 31.3125 56.5 C33.42491627 62.83724882 32.94248399 69.58737537 30.27734375 75.69140625 C26.80498138 82.20032843 22.0042085 85.62394035 15.3125 88.5 C2.76751076 92.00195813 -11.2554622 90.14888723 -22.46484375 83.96875 C-25.95497613 81.92574568 -29.32311628 79.74292248 -32.6875 77.5 C-32.14523019 73.70411134 -30.48622437 72.02788007 -27.6875 69.5 C-24.46069966 70.60921262 -21.81028877 72.04497288 -19 73.9375 C-10.32008671 79.4212583 -0.37436948 81.11499375 9.7109375 78.99609375 C14.25237775 77.51885947 16.75815826 75.48477312 19.3125 71.5 C20.54964895 69.0257021 20.26831362 67.78500667 19.9375 65.0625 C19.84726563 64.28003906 19.75703125 63.49757813 19.6640625 62.69140625 C19.34598872 60.33053014 19.34598872 60.33053014 18.3125 57.5 C16.57352913 56.37352687 16.57352913 56.37352687 14.3125 55.5 C13.384375 55.10941406 12.45625 54.71882813 11.5 54.31640625 C6.10082509 52.19246612 0.86038742 50.30668419 -4.8125 49.0625 C-13.63906503 46.981535 -21.60709104 43.20255552 -26.6875 35.5 C-29.71497135 29.18648324 -29.79541421 21.83348722 -28.0703125 15.0859375 C-25.15823934 8.41136274 -19.52401294 4.58339064 -12.96484375 1.86328125 C-8.61364358 0.30336943 -4.59769964 -0.03852262 0 0 Z " fill="#64A259" transform="translate(1504.6875,1264.5)"/>
<path d="M0 0 C0.92844727 0.00757324 1.85689453 0.01514648 2.81347656 0.02294922 C14.03067929 0.2924611 21.71701828 3.89652374 30.6875 10.4375 C31.6775 11.0975 32.6675 11.7575 33.6875 12.4375 C33.6875 14.4375 33.6875 14.4375 31.4375 17.0625 C28.6875 19.4375 28.6875 19.4375 24.6875 19.4375 C22.6796875 18.23046875 22.6796875 18.23046875 20.5625 16.625 C12.70206648 11.1920533 4.19763178 9.20858429 -5.3125 10.4375 C-13.10221036 12.58638562 -20.60629267 17.48314673 -25.17578125 24.16015625 C-30.72672346 34.00347383 -32.28840423 45.42126677 -29.55859375 56.49609375 C-25.89047794 65.94688625 -20.25840532 73.05713363 -11.25 77.8125 C-2.94265183 81.16086993 5.97288547 80.47461887 14.1875 77.25 C17.57898839 75.67602467 20.3998853 74.05044612 23.1875 71.5625 C25.6875 69.4375 25.6875 69.4375 27.8125 69.375 C30.1951718 70.72518069 31.85895473 72.41303916 33.6875 74.4375 C32.22341904 78.06587454 30.37537397 79.71809407 27.1875 81.9375 C26.3934375 82.5046875 25.599375 83.071875 24.78125 83.65625 C16.78760263 88.25865303 9.89981078 90.09232875 0.6875 89.9375 C-0.69308594 89.96070313 -0.69308594 89.96070313 -2.1015625 89.984375 C-13.96562418 89.91753522 -22.75319925 84.89453993 -31.06640625 76.7109375 C-34.72271164 72.69724888 -37.25464831 68.44951212 -39.3125 63.4375 C-39.61285156 62.71046875 -39.91320312 61.9834375 -40.22265625 61.234375 C-44.1715779 50.14066023 -43.4280785 37.3867816 -39.3125 26.4375 C-33.5391946 14.74157957 -25.04824777 5.4563748 -12.55444336 1.01977539 C-8.39810111 -0.05970585 -4.27232206 -0.04867202 0 0 Z " fill="#65A35C" transform="translate(911.3125,1264.5625)"/>
<path d="M0 0 C4.14046171 -0.59058733 7.87761515 -0.79781801 12 0 C15.19366242 2.70111871 16.85640477 5.99942938 18.75 9.6875 C19.28947266 10.64615967 19.82894531 11.60481934 20.38476562 12.5925293 C21.46040007 14.50500089 22.51945049 16.42690799 23.56054688 18.35839844 C25.4164408 21.76422821 27.43537219 25.02927608 29.5 28.3125 C30.41265625 29.80136719 30.41265625 29.80136719 31.34375 31.3203125 C32.87167077 33.79237299 34.43249705 36.24045373 36 38.6875 C38 42 38 42 38 44 C38.66 44 39.32 44 40 44 C40.25885986 43.29818604 40.51771973 42.59637207 40.78442383 41.87329102 C42.10960326 38.74092775 43.70324565 35.94613889 45.44921875 33.02734375 C45.78492386 32.46358536 46.12062897 31.89982697 46.46650696 31.31898499 C47.53680488 29.52312169 48.61196011 27.7302278 49.6875 25.9375 C50.73998776 24.17607007 51.79144602 22.41403782 52.84159851 20.6512146 C53.53713128 19.48733226 54.23619161 18.32555057 54.938797 17.16592407 C56.66308822 14.30900005 58.29262085 11.43918551 59.83666992 8.47998047 C64.18219695 0.27169537 64.18219695 0.27169537 68.52734375 -1.171875 C69.65269531 -1.03265625 70.77804687 -0.8934375 71.9375 -0.75 C73.65259766 -0.58757812 73.65259766 -0.58757812 75.40234375 -0.421875 C76.25957031 -0.28265625 77.11679687 -0.1434375 78 0 C77.63390625 0.56203125 77.2678125 1.1240625 76.890625 1.703125 C73.97359927 6.23146018 71.11537388 10.78456714 68.35546875 15.41015625 C67.88310791 16.20083496 67.41074707 16.99151367 66.92407227 17.80615234 C65.91447253 19.50832854 64.91395085 21.21591531 63.92163086 22.92822266 C61.23212641 27.51430659 58.44448656 31.8126824 55.1484375 35.98828125 C42.82571234 52.15710089 43.08007118 67.44031494 44 87 C40.7 87 37.4 87 34 87 C34.0220752 86.04859131 34.04415039 85.09718262 34.06689453 84.11694336 C35.17760374 60.21671346 35.17760374 60.21671346 24.54589844 39.86181641 C21.36016295 36.02504779 18.93966522 31.63936697 16.375 27.375 C15.27366582 25.58109079 14.17083813 23.7880975 13.06640625 21.99609375 C12.54449707 21.14515137 12.02258789 20.29420898 11.48486328 19.41748047 C10.15040299 17.24486854 8.80969374 15.07634665 7.46484375 12.91015625 C6.91014404 12.01514404 6.91014404 12.01514404 6.34423828 11.10205078 C5.3925048 9.56657542 4.44040961 8.03132428 3.48828125 6.49609375 C2.21719406 4.36427036 1.09429374 2.22481847 0 0 Z " fill="#63A158" transform="translate(550,1266)"/>
<path d="M0 0 C22.77 0 45.54 0 69 0 C69 3.3 69 6.6 69 10 C59.1 10 49.2 10 39 10 C39 35.41 39 60.82 39 87 C35.7 87 32.4 87 29 87 C29 61.59 29 36.18 29 10 C19.43 10 9.86 10 0 10 C0 6.7 0 3.4 0 0 Z " fill="#5FA055" transform="translate(1565,1266)"/>
<path d="M0 0 C3.3 0 6.6 0 10 0 C10 25.74 10 51.48 10 78 C24.85 78 39.7 78 55 78 C55 80.97 55 83.94 55 87 C36.85 87 18.7 87 0 87 C0 58.29 0 29.58 0 0 Z " fill="#64A159" transform="translate(1101,1266)"/>
<path d="M0 0 C3.63 0 7.26 0 11 0 C11 28.71 11 57.42 11 87 C7.37 87 3.74 87 0 87 C0 58.29 0 29.58 0 0 Z " fill="#5BA151" transform="translate(1422,1266)"/>
<path d="M0 0 C3.63 0 7.26 0 11 0 C11 28.71 11 57.42 11 87 C7.37 87 3.74 87 0 87 C0 58.29 0 29.58 0 0 Z M2 4 C1.81208085 6.62025721 1.74814215 9.13391315 1.77294922 11.75439453 C1.77265717 12.55447937 1.77236511 13.35456421 1.77206421 14.17889404 C1.77346044 16.83030953 1.7890353 19.48144594 1.8046875 22.1328125 C1.80841659 23.96841274 1.81126405 25.80401498 1.81326294 27.63961792 C1.8209076 32.47627232 1.8405632 37.31280703 1.8626709 42.14941406 C1.88311143 47.08266582 1.89226081 52.01593687 1.90234375 56.94921875 C1.92380833 66.63286515 1.95795428 76.31642263 2 86 C4.41645782 86.16687448 4.41645782 86.16687448 7 86 C9.5119859 83.4880141 9.23524138 81.97367159 9.24884033 78.54733276 C9.24164978 77.78776276 9.23445923 77.02819275 9.22705078 76.24560547 C9.22734283 75.44552063 9.22763489 74.64543579 9.22793579 73.82110596 C9.22653956 71.16969047 9.2109647 68.51855406 9.1953125 65.8671875 C9.19158341 64.03158726 9.18873595 62.19598502 9.18673706 60.36038208 C9.1790924 55.52372768 9.1594368 50.68719297 9.1373291 45.85058594 C9.11688857 40.91733418 9.10773919 35.98406313 9.09765625 31.05078125 C9.07619167 21.36713485 9.04204572 11.68357737 9 2 C5.04542152 1.65176193 5.04542152 1.65176193 2 4 Z " fill="#7EAB77" transform="translate(1422,1266)"/>
<path d="M0 0 C22.77 0 45.54 0 69 0 C69 3.3 69 6.6 69 10 C59.1 10 49.2 10 39 10 C39 21.88 39 33.76 39 46 C38.67 46 38.34 46 38 46 C38 33.79 38 21.58 38 9 C46.91 8.67 55.82 8.34 65 8 C65.66 6.02 66.32 4.04 67 2 C65.98462158 2.16226074 64.96924316 2.32452148 63.9230957 2.49169922 C60.30180397 2.96089639 56.87778447 3.129199 53.23046875 3.1328125 C51.94076172 3.13474609 50.65105469 3.13667969 49.32226562 3.13867188 C47.94400902 3.13455964 46.5657537 3.12999309 45.1875 3.125 C44.48923096 3.12411377 43.79096191 3.12322754 43.0715332 3.12231445 C29.36560861 3.10198621 15.69014471 2.66885322 2 2 C2 3.98 2 5.96 2 8 C2.77601562 7.98839844 3.55203125 7.97679687 4.3515625 7.96484375 C12.61472608 7.89581971 20.76708427 8.30878069 29 9 C29 9.33 29 9.66 29 10 C19.43 10 9.86 10 0 10 C0 6.7 0 3.4 0 0 Z " fill="#77A670" transform="translate(1565,1266)"/>
<path d="M0 0 C0.33 0 0.66 0 1 0 C1.18707453 5.83702315 0.42538189 11.29215373 -0.47265625 17.05078125 C-2.12873137 28.46333143 -2.50797663 39.67027794 -2.4375 51.1875 C-2.43645264 52.15548523 -2.43540527 53.12347046 -2.43432617 54.12078857 C-2.40052111 69.33463016 -1.3879403 83.95100686 1.6328125 98.89501953 C2 101 2 101 2 104 C2.598125 103.401875 3.19625 102.80375 3.8125 102.1875 C5.54166667 100.45833333 7.27083333 98.72916667 9 97 C8.37215066 99.92996359 7.71202908 102.51755783 6 105 C3.421875 105.61328125 3.421875 105.61328125 1 106 C-3.77522215 86.48162056 -7.12897622 67.24324829 -5.16455078 47.11181641 C-4.89393739 43.63881068 -4.82539371 40.16023776 -4.7199707 36.67895508 C-4.32627049 24.27790427 -3.23183799 12.02616635 0 0 Z " fill="#E6F7DF" transform="translate(901,883)"/>
<path d="M0 0 C16.5 0 33 0 50 0 C50 0.33 50 0.66 50 1 C49.41340103 1.01030746 48.82680206 1.02061493 48.22242737 1.03123474 C42.1396213 1.13907194 36.05697026 1.25368756 29.97436523 1.37231445 C27.70161164 1.41573665 25.42882387 1.45740616 23.15600586 1.49731445 C19.89686768 1.55484119 16.63790269 1.61858552 13.37890625 1.68359375 C12.35599991 1.70030624 11.33309357 1.71701874 10.27919006 1.73423767 C9.33829025 1.75418289 8.39739044 1.77412811 7.42797852 1.79467773 C6.59524918 1.81022202 5.76251984 1.8257663 4.90455627 1.84178162 C2.99033415 1.79428614 2.99033415 1.79428614 2 3 C1.89884631 5.5526431 1.86135042 8.07252823 1.875 10.625 C1.87113281 11.32496094 1.86726562 12.02492188 1.86328125 12.74609375 C1.86457031 13.44089844 1.86585938 14.13570312 1.8671875 14.8515625 C1.86831543 15.47885254 1.86944336 16.10614258 1.87060547 16.75244141 C2.0490927 19.85273087 2.56082686 22.925788 3 26 C16.86 26.33 30.72 26.66 45 27 C45 30.63 45 34.26 45 38 C44.67 38 44.34 38 44 38 C44 35.03 44 32.06 44 29 C29.48 29 14.96 29 0 29 C0 19.43 0 9.86 0 0 Z " fill="#DDF4D9" transform="translate(787,1276)"/>
<path d="M0 0 C0.33 0 0.66 0 1 0 C1.4835135 2.47838682 1.96187201 4.95759778 2.4375 7.4375 C2.57220703 8.12521484 2.70691406 8.81292969 2.84570312 9.52148438 C8.00558131 36.57938217 5.33959583 65.53710483 -8 90 C-12.75 89.25 -12.75 89.25 -15 87 C-14.236875 87.0825 -13.47375 87.165 -12.6875 87.25 C-9.96452503 87.28882698 -9.96452503 87.28882698 -8.5234375 85.4921875 C-6.45821938 82.11370248 -5.21740992 78.61075492 -3.9375 74.875 C-3.67364502 74.1123584 -3.40979004 73.3497168 -3.13793945 72.56396484 C-1.28674226 67.09918893 0.24660461 61.73363243 1 56 C1.16435547 54.80503906 1.16435547 54.80503906 1.33203125 53.5859375 C2.87619206 39.95614472 4.3672626 21.10178781 0 8 C-0.12781786 5.32605036 -0.04391871 2.67904143 0 0 Z " fill="#E9FAE4" transform="translate(1023,1040)"/>
<path d="M0 0 C0.680625 0.12117188 1.36125 0.24234375 2.0625 0.3671875 C16.41832398 2.84891239 30.32278167 4.35420992 44.88085938 4.31567383 C47.36633156 4.31251103 49.8506107 4.3361026 52.3359375 4.36132812 C62.19476226 4.3981665 71.48752535 3.52104946 81.16650391 1.64526367 C84.5452505 1.07654458 87.58630853 0.8731828 91 1 C90.67 1.66 90.34 2.32 90 3 C75.64823158 7.76564861 59.32455585 7.38856111 44.375 7.375 C43.08695465 7.3774472 43.08695465 7.3774472 41.77288818 7.37994385 C39.29357175 7.37941073 36.81510965 7.36169234 34.3359375 7.3359375 C33.22937805 7.33234222 33.22937805 7.33234222 32.10046387 7.32867432 C27.42475535 7.24463688 23.44358168 6.41434666 19 5 C15.73445727 4.44612703 12.46596058 4.00382663 9.18359375 3.5625 C5.97470401 2.99553052 3.06112759 2.10476785 0 1 C0 0.67 0 0.34 0 0 Z " fill="#E0F5DB" transform="translate(1030,1156)"/>
<path d="M0 0 C0.69867188 -0.00064453 1.39734375 -0.00128906 2.1171875 -0.00195312 C7.66259051 0.05431941 12.88310324 0.74256626 18.25 2.1875 C18.25 2.8475 18.25 3.5075 18.25 4.1875 C18.91 4.1875 19.57 4.1875 20.25 4.1875 C20.25 4.8475 20.25 5.5075 20.25 6.1875 C19.59257812 5.9709375 18.93515625 5.754375 18.2578125 5.53125 C5.95512932 1.93046468 -7.45631952 0.91475286 -19.203125 6.70703125 C-26.34348488 10.85763922 -31.1387189 15.3055123 -35.75 22.1875 C-36.08 21.1975 -36.41 20.2075 -36.75 19.1875 C-35.60546875 17.14453125 -35.60546875 17.14453125 -33.9375 15 C-33.39480469 14.28457031 -32.85210937 13.56914063 -32.29296875 12.83203125 C-31.52919922 12.01798828 -31.52919922 12.01798828 -30.75 11.1875 C-30.09 11.1875 -29.43 11.1875 -28.75 11.1875 C-28.42 10.1975 -28.09 9.2075 -27.75 8.1875 C-26.76 8.1875 -25.77 8.1875 -24.75 8.1875 C-24.75 7.5275 -24.75 6.8675 -24.75 6.1875 C-23.04605107 5.36584491 -21.33660102 4.55559355 -19.625 3.75 C-18.67367188 3.29753906 -17.72234375 2.84507813 -16.7421875 2.37890625 C-11.25775339 0.19515637 -5.84566089 -0.00559929 0 0 Z " fill="#EBFBE7" transform="translate(487.75,1262.8125)"/>
<path d="M0 0 C0.66 0 1.32 0 2 0 C8.77971622 11.73834361 12.2040944 21.66453167 12.125 35.25 C12.11883667 36.5191626 12.11883667 36.5191626 12.11254883 37.81396484 C12.03211969 46.80300215 11.94654351 55.71037033 8 64 C7.01 64.495 7.01 64.495 6 65 C6.47842606 61.25232921 7.07110029 57.66936024 8.015625 54.01171875 C11.07459752 40.3552921 10.72450169 23.85726737 5 11 C4.54496094 9.93910156 4.08992188 8.87820313 3.62109375 7.78515625 C2.46084306 5.16384914 1.2590804 2.57492263 0 0 Z " fill="#ECFCE7" transform="translate(1128,993)"/>
<path d="M0 0 C9.57 0 19.14 0 29 0 C29 0.33 29 0.66 29 1 C28.21761963 1.02505615 27.43523926 1.0501123 26.62915039 1.07592773 C23.10675051 1.19149788 19.5846444 1.31439949 16.0625 1.4375 C14.83080078 1.47681641 13.59910156 1.51613281 12.33007812 1.55664062 C10.5753418 1.61948242 10.5753418 1.61948242 8.78515625 1.68359375 C7.15912476 1.73858032 7.15912476 1.73858032 5.50024414 1.79467773 C3.060737 1.72364265 3.060737 1.72364265 2 3 C1.87593185 5.20794411 1.82197722 7.41984486 1.79467773 9.63110352 C1.78477814 10.32375305 1.77487854 11.01640259 1.76467896 11.7300415 C1.7329797 14.02962779 1.70827349 16.32923477 1.68359375 18.62890625 C1.66303148 20.21932018 1.64203521 21.80972855 1.62062073 23.40013123 C1.56532491 27.59389763 1.5159489 31.78771395 1.46777344 35.98156738 C1.41761309 40.25793928 1.36189856 44.53423834 1.30664062 48.81054688 C1.19896726 57.20696973 1.09754284 65.60345338 1 74 C0.67 74 0.34 74 0 74 C0 49.58 0 25.16 0 0 Z " fill="#F0FEED" transform="translate(1605,1276)"/>
<path d="M0 0 C6.12788354 2.43527121 8.33049354 8.5368602 11.05078125 14.1796875 C13.25690457 20.05571264 13.27317713 25.98684477 13.3125 32.1875 C13.31813965 33.04327637 13.3237793 33.89905273 13.32958984 34.78076172 C13.27138423 39.85648857 12.87866803 44.25620614 11 49 C9.515 49.495 9.515 49.495 8 50 C8.32355469 48.88367187 8.64710937 47.76734375 8.98046875 46.6171875 C10.18762115 41.76509659 10.34565766 37.10717521 10.3125 32.125 C10.30686035 31.24021973 10.3012207 30.35543945 10.29541016 29.44384766 C10.09023636 18.43149953 6.91210362 11.2044727 1 2 C0.67 1.34 0.34 0.68 0 0 Z " fill="#DDF2DA" transform="translate(1256,1278)"/>
<path d="M0 0 C3.44312589 3.44312589 5.79263746 5.88620256 8.3125 9.8125 C8.82425781 10.60269531 9.33601562 11.39289063 9.86328125 12.20703125 C10.23839844 12.79871094 10.61351562 13.39039063 11 14 C10.01 13.67 9.02 13.34 8 13 C8 12.34 8 11.68 8 11 C7.34 11 6.68 11 6 11 C4.98133771 9.34467377 3.98189187 7.67739862 3 6 C2.34 5.67 1.68 5.34 1 5 C1 25.79 1 46.58 1 68 C0.67 68 0.34 68 0 68 C0 45.56 0 23.12 0 0 Z " fill="#EBFFEA" transform="translate(671,1285)"/>
<path d="M0 0 C8.58 0 17.16 0 26 0 C26.0825 2.908125 26.165 5.81625 26.25 8.8125 C26.28641602 9.72491455 26.32283203 10.6373291 26.36035156 11.57739258 C26.44234577 17.51469916 26.44234577 17.51469916 24.109375 20.07421875 C22 21 22 21 20 21 C20.33 20.01 20.66 19.02 21 18 C21.66 18 22.32 18 23 18 C23.33 12.72 23.66 7.44 24 2 C16.41 2 8.82 2 1 2 C0.67 1.34 0.34 0.68 0 0 Z " fill="#DEF4D9" transform="translate(1344,1317)"/>
<path d="M0 0 C2.04687058 0.01005913 4.09374599 0.01917975 6.140625 0.02734375 C11.09387219 0.04910355 16.04688076 0.08346843 21 0.125 C21 0.455 21 0.785 21 1.125 C19.50895752 1.13901855 19.50895752 1.13901855 17.98779297 1.15332031 C-3.97432596 1.39329712 -25.30442712 2.58130768 -47 6.125 C-46 4.125 -46 4.125 -42.875 3.06982422 C-28.73848675 -0.37701968 -14.45186363 -0.12491011 0 0 Z " fill="#E4F6DE" transform="translate(1251,810.875)"/>
<path d="M0 0 C1.9046661 1.56804726 3.38814082 3.11949763 5 5 C1.52232236 4.34944137 -0.95767996 2.94038351 -3.9375 1.0625 C-11.34134598 -3.59494253 -16.80455439 -4.33956253 -25.4375 -4.3125 C-26.46166016 -4.32861328 -27.48582031 -4.34472656 -28.54101562 -4.36132812 C-34.28454885 -4.36504562 -37.90539846 -3.85833131 -43 -1 C-45.375 -1.3125 -45.375 -1.3125 -47 -2 C-45.60721983 -2.65239158 -44.21060788 -3.29660552 -42.8125 -3.9375 C-42.03519531 -4.29714844 -41.25789063 -4.65679688 -40.45703125 -5.02734375 C-27.24117198 -10.2590591 -11.77805242 -7.11127693 0 0 Z " fill="#E7FAE2" transform="translate(1102,994)"/>
<path d="M0 0 C0.66 0 1.32 0 2 0 C1.38472227 4.45022795 -0.33509616 8.08584256 -2.4375 12 C-2.9644043 12.98250732 -2.9644043 12.98250732 -3.50195312 13.98486328 C-9.24536249 24.36660193 -16.96803636 33.31740243 -25 42 C-25.495 40.515 -25.495 40.515 -26 39 C-25.50628906 38.51789063 -25.01257812 38.03578125 -24.50390625 37.5390625 C-23.86324219 36.90742187 -23.22257812 36.27578125 -22.5625 35.625 C-21.92441406 34.99851562 -21.28632812 34.37203125 -20.62890625 33.7265625 C-18.92117824 32.08276939 -18.92117824 32.08276939 -18 30 C-17.34 30 -16.68 30 -16 30 C-16 29.01 -16 28.02 -16 27 C-15.34 27 -14.68 27 -14 27 C-13.59201172 26.15308594 -13.59201172 26.15308594 -13.17578125 25.2890625 C-11.95154378 22.90566331 -10.59474889 20.65481747 -9.1875 18.375 C-5.64667848 12.51702322 -2.17098698 6.51296093 0 0 Z " fill="#EAFBE5" transform="translate(1111,1053)"/>
<path d="M0 0 C0.66 0.99 1.32 1.98 2 3 C1.30777344 2.7834375 0.61554688 2.566875 -0.09765625 2.34375 C-12.05470448 -1.05904633 -23.29661896 -1.30238579 -35 3 C-36.32905754 3.34999278 -37.66133851 3.68875365 -39 4 C-39 3.34 -39 2.68 -39 2 C-27.68166554 -4.10623054 -11.91905759 -6.33770459 0 0 Z " fill="#EBFBE8" transform="translate(1036,1266)"/>
<path d="M0 0 C0.33 0 0.66 0 1 0 C1.01981934 0.648479 1.03963867 1.29695801 1.06005859 1.96508789 C1.42407126 23.79881445 1.42407126 23.79881445 6 45 C6.125 47.875 6.125 47.875 6 50 C2.94605776 45.41908665 2.22521687 40.32019305 1 35 C0.78988281 34.18015625 0.57976563 33.3603125 0.36328125 32.515625 C-2.14422802 21.91650779 -1.4132366 10.72545633 0 0 Z " fill="#E7F7E2" transform="translate(893,1011)"/>
<path d="M0 0 C4.12961381 4.12961381 4.16304507 10.36496614 4.3125 15.9375 C4.13838902 25.15377458 1.05709216 33.60481682 -5.25 40.4375 C-6.11625 41.2109375 -6.11625 41.2109375 -7 42 C-7 39 -7 39 -6 37 C-5.34 37 -4.68 37 -4 37 C-3.81630859 36.11054687 -3.81630859 36.11054687 -3.62890625 35.203125 C-3 33 -3 33 -0.9375 29.75 C3.42249725 21.33015025 1.29058358 9.03408505 0 0 Z " fill="#D6F0D2" transform="translate(1253,1294)"/>
<path d="M0 0 C0.66 0.33 1.32 0.66 2 1 C0.35 2.65 -1.3 4.3 -3 6 C-0.24993392 6.0270203 2.49986546 6.04684883 5.25 6.0625 C6.02730469 6.07087891 6.80460937 6.07925781 7.60546875 6.08789062 C8.35957031 6.09111328 9.11367187 6.09433594 9.890625 6.09765625 C10.58188477 6.10289307 11.27314453 6.10812988 11.98535156 6.11352539 C14.09973898 5.99437971 15.96641515 5.57618237 18 5 C16.79443359 6.97338867 16.79443359 6.97338867 15 9 C12.81103516 9.4699707 12.81103516 9.4699707 10.2890625 9.42578125 C9.37382813 9.41740234 8.45859375 9.40902344 7.515625 9.40039062 C6.08476563 9.35688477 6.08476563 9.35688477 4.625 9.3125 C3.67882813 9.30283203 2.73265625 9.29316406 1.7578125 9.28320312 C-2.63667241 9.21222479 -6.6976498 8.9534653 -11 8 C-8.83385197 5.69125289 -6.60793392 3.94709819 -3.9375 2.25 C-2.89916016 1.57710937 -2.89916016 1.57710937 -1.83984375 0.890625 C-1.23269531 0.59671875 -0.62554688 0.3028125 0 0 Z " fill="#DEF3D5" transform="translate(1071,1132)"/>
<path d="M0 0 C0 0.66 0 1.32 0 2 C-0.87785156 1.67515625 -0.87785156 1.67515625 -1.7734375 1.34375 C-13.56210255 -2.47960083 -27.45484659 -2.87333109 -39 2 C-39 1.34 -39 0.68 -39 0 C-25.5659342 -5.82987761 -13.61610859 -5.222617 0 0 Z " fill="#EAFAE6" transform="translate(1525,1267)"/>
<path d="M0 0 C0 3 0 3 -2.38671875 5.72729492 C-3.47931119 6.81941176 -4.5801754 7.90329204 -5.6875 8.98046875 C-6.26459717 9.55332108 -6.84169434 10.1261734 -7.4362793 10.71638489 C-9.28394376 12.54723565 -11.14175807 14.36739185 -13 16.1875 C-14.25328593 17.42574262 -15.50589901 18.66466668 -16.7578125 19.90429688 C-19.83078528 22.94416468 -22.91290242 25.97448016 -26 29 C-26.66 28.67 -27.32 28.34 -28 28 C-25.81467248 25.64380886 -23.6263303 23.29043713 -21.4375 20.9375 C-20.82841797 20.28072266 -20.21933594 19.62394531 -19.59179688 18.94726562 C-13.35600341 12.24956154 -7.02116285 5.87485054 0 0 Z " fill="#EFFBE9" transform="translate(1066,865)"/>
<path d="M0 0 C0.33 0 0.66 0 1 0 C1 21.78 1 43.56 1 66 C-0.32 64.68 -1.64 63.36 -3 62 C-2.01 61.505 -2.01 61.505 -1 61 C-0.67 40.87 -0.34 20.74 0 0 Z " fill="#D7F4D3" transform="translate(720,1266)"/>
<path d="M0 0 C0.90621094 0.54269531 1.81242187 1.08539062 2.74609375 1.64453125 C3.97630205 2.36763079 5.20678584 3.09026178 6.4375 3.8125 C7.02982422 4.16892578 7.62214844 4.52535156 8.23242188 4.89257812 C17.14367244 10.08683648 24.78026867 11.44050128 35.0625 11.1875 C36.11888672 11.17396484 37.17527344 11.16042969 38.26367188 11.14648438 C40.84299809 11.1114709 43.42121494 11.06236675 46 11 C46 11.66 46 12.32 46 13 C36.76 13 27.52 13 18 13 C18 12.34 18 11.68 18 11 C17.14148437 10.90460938 16.28296875 10.80921875 15.3984375 10.7109375 C11.60878462 9.91815954 8.95940779 8.57624604 5.625 6.625 C4.56539062 6.01914063 3.50578125 5.41328125 2.4140625 4.7890625 C1.61742187 4.19867187 0.82078125 3.60828125 0 3 C0 2.01 0 1.02 0 0 Z " fill="#E2F7DE" transform="translate(1473,1342)"/>
<path d="M0 0 C4.04770625 7.91665593 4.15671835 16.69426524 1.8125 25.25 C-0.18983977 31.13365241 -2.75734546 36.50489697 -8 40 C-7.40344287 36.93677967 -6.47256249 35.01667524 -4.5625 32.5625 C-1.03067578 28.01857093 0.25693805 24.02370726 0.1953125 18.26171875 C0.18886719 17.19501953 0.18242188 16.12832031 0.17578125 15.02929688 C0.15902344 13.92650391 0.14226562 12.82371094 0.125 11.6875 C0.11597656 10.56537109 0.10695313 9.44324219 0.09765625 8.28710938 C0.07414486 5.52452091 0.04128155 2.76237068 0 0 Z " fill="#E5F9E0" transform="translate(1048,1296)"/>
<path d="M0 0 C0.72018311 0.32597168 1.44036621 0.65194336 2.18237305 0.98779297 C5.05371686 2.0192973 7.05324683 2.2324755 10.08203125 2.1953125 C11.01337891 2.18886719 11.94472656 2.18242188 12.90429688 2.17578125 C13.86400391 2.15902344 14.82371094 2.14226562 15.8125 2.125 C16.79154297 2.11597656 17.77058594 2.10695313 18.77929688 2.09765625 C21.18645061 2.07417182 23.59309743 2.0413284 26 2 C26.33 1.34 26.66 0.68 27 0 C29.5 1.375 29.5 1.375 32 3 C32 3.66 32 4.32 32 5 C22.76 5 13.52 5 4 5 C4 4.34 4 3.68 4 3 C2.68 2.34 1.36 1.68 0 1 C0 0.67 0 0.34 0 0 Z " fill="#DDF4D4" transform="translate(956,1136)"/>
<path d="M0 0 C0.33 0 0.66 0 1 0 C1.05447822 2.52113092 1.09389852 5.0410585 1.125 7.5625 C1.14175781 8.26697266 1.15851563 8.97144531 1.17578125 9.69726562 C1.220079 14.50357172 0.42516307 18.37078326 -1 23 C-1.72461951 26.71848727 -2.28558277 30.46597251 -2.85546875 34.2109375 C-3.17330468 36.15212898 -3.57952442 38.0784266 -4 40 C-4.99 40.495 -4.99 40.495 -6 41 C-5.15905665 32.42624429 -3.78658136 23.94225159 -2.4375 15.4375 C-2.20098631 13.93687819 -1.96465668 12.43622737 -1.72851562 10.93554688 C-1.15446565 7.29002751 -0.57792494 3.64490733 0 0 Z " fill="#DFF3D9" transform="translate(1318,898)"/>
<path d="M0 0 C0.33 0 0.66 0 1 0 C1 3.3 1 6.6 1 10 C8.92 10 16.84 10 25 10 C25.103125 12.743125 25.20625 15.48625 25.3125 18.3125 C25.38078003 19.60281128 25.38078003 19.60281128 25.45043945 20.91918945 C25.48930964 23.0445108 25.46558045 24.92224393 25 27 C22.48046875 29.04296875 22.48046875 29.04296875 20 30 C20 27 20 27 21.45703125 25.203125 C23.46475404 22.33640183 23.49902758 20.21789248 23.6875 16.75 C23.790625 14.8525 23.89375 12.955 24 11 C16.08 11 8.16 11 0 11 C0 7.37 0 3.74 0 0 Z " fill="#E5FBE2" transform="translate(487,1308)"/>
<path d="M0 0 C0.99 0 1.98 0 3 0 C3.9648658 2.01772251 4.92158397 4.03934207 5.875 6.0625 C6.67550781 7.75052734 6.67550781 7.75052734 7.4921875 9.47265625 C10.57610554 16.68710701 11.26980102 22.7017838 11.125 30.4375 C11.11597656 31.35982422 11.10695313 32.28214844 11.09765625 33.23242188 C11.0742766 35.48855809 11.04150916 37.74413684 11 40 C10.01 40.495 10.01 40.495 9 41 C9.03480469 39.82824219 9.06960938 38.65648437 9.10546875 37.44921875 C9.41085726 22.9787391 6.9340192 12.85822979 0 0 Z " fill="#E7F8E2" transform="translate(1052,1280)"/>
<path d="M0 0 C0.66 0.33 1.32 0.66 2 1 C0.91332031 1.67095703 0.91332031 1.67095703 -0.1953125 2.35546875 C-7.74402835 7.07593239 -14.04372814 11.44665238 -19.5078125 18.546875 C-21.27794727 20.27067116 -22.59251304 20.60736264 -25 21 C-19.05422456 11.9121481 -10.21772741 4.02983646 0 0 Z " fill="#EDFBE6" transform="translate(935,959)"/>
<path d="M0 0 C2.4361424 0.58467418 4.78762733 1.25382332 7.17578125 2.0234375 C11.14630364 3.03736048 14.53514299 3.2666593 18.625 3.25 C20.53152344 3.25773437 20.53152344 3.25773437 22.4765625 3.265625 C25.81521347 3.01393069 27.9543751 2.26099557 31 1 C32.485 1.495 32.485 1.495 34 2 C25.27584588 5.91625355 16.24925612 8.31542951 6.953125 4.87109375 C4.55247609 3.68094154 2.26393788 2.43093139 0 1 C0 0.67 0 0.34 0 0 Z " fill="#E0F5DB" transform="translate(1001,1339)"/>
<path d="M0 0 C10.13716046 -0.66473183 17.78126717 1.69624862 25.5 8.4375 C28.64507331 11.37324213 31.00716722 14.17401656 33 18 C33 18.66 33 19.32 33 20 C32.01 19.67 31.02 19.34 30 19 C29.608125 18.13375 29.21625 17.2675 28.8125 16.375 C24.80203839 8.9072439 18.59307829 5.28717618 10.69921875 2.7109375 C7.11329874 1.76645495 3.69582379 1.2789301 0 1 C0 0.67 0 0.34 0 0 Z " fill="#DDF4D9" transform="translate(1220,1274)"/>
<path d="M0 0 C0 0.66 0 1.32 0 2 C-1.5390625 3.515625 -1.5390625 3.515625 -3.625 5.25 C-6.34047759 7.54660073 -8.91262264 9.87150775 -11.375 12.4375 C-14 15 -14 15 -16 15 C-14.67441682 11.0847466 -13.07706617 8.692157 -10.125 5.8125 C-9.44695313 5.13832031 -8.76890625 4.46414063 -8.0703125 3.76953125 C-5.53121354 1.59932025 -3.40470117 0 0 0 Z " fill="#E7F9E6" transform="translate(1007,1277)"/>
<path d="M0 0 C0 0.66 0 1.32 0 2 C-0.99 2 -1.98 2 -3 2 C-3.25007813 2.57363281 -3.50015625 3.14726563 -3.7578125 3.73828125 C-5.17294576 6.31489181 -6.80413484 8.10491296 -8.875 10.1875 C-9.55304688 10.88230469 -10.23109375 11.57710937 -10.9296875 12.29296875 C-13.03086032 14.0254452 -14.34102145 14.60055703 -17 15 C-13.80780601 9.44835827 -6.97774598 0 0 0 Z " fill="#ECFAE6" transform="translate(1055,993)"/>
<path d="M0 0 C0.93134766 0.00902344 1.86269531 0.01804687 2.82226562 0.02734375 C5.1109436 0.05081737 7.39908672 0.08365271 9.6875 0.125 C9.6875 0.785 9.6875 1.445 9.6875 2.125 C11.3375 2.125 12.9875 2.125 14.6875 2.125 C14.3575 2.785 14.0275 3.445 13.6875 4.125 C12.429375 3.795 11.17125 3.465 9.875 3.125 C0.57448721 1.09871273 -7.40540526 1.87903055 -16.3125 5.125 C-15.3125 2.125 -15.3125 2.125 -13.39453125 0.9453125 C-8.91779811 -0.24621343 -4.60914878 -0.08469107 0 0 Z " fill="#6FA268" transform="translate(1346.3125,1272.875)"/>
<path d="M0 0 C0.33 0 0.66 0 1 0 C1.08802152 3.9790243 1.14073233 7.95779388 1.1875 11.9375 C1.22520508 13.61295898 1.22520508 13.61295898 1.26367188 15.32226562 C1.32151634 21.8972532 1.12221052 28.06139501 -2 34 C-2.99 34.495 -2.99 34.495 -4 35 C-3.51723364 31.21833019 -2.91661681 27.57566934 -2 23.875 C-0.87849032 18.89964019 -0.56436768 14.02281125 -0.375 8.9375 C-0.33632812 8.07189453 -0.29765625 7.20628906 -0.2578125 6.31445312 C-0.16479519 4.20993641 -0.08137331 2.1049991 0 0 Z " fill="#D8EDD2" transform="translate(1138,1023)"/>
<path d="M0 0 C-2.31 1.65 -4.62 3.3 -7 5 C-6.45931095 9.1452827 -5.81296818 13.26219801 -5.0625 17.375 C-4.90910156 18.22835937 -4.75570313 19.08171875 -4.59765625 19.9609375 C-4.30181641 20.97027344 -4.30181641 20.97027344 -4 22 C-3.34 22.33 -2.68 22.66 -2 23 C-2.99 23 -3.98 23 -5 23 C-6.03551045 20.06746654 -7.05081838 17.12833062 -8.0625 14.1875 C-8.35705078 13.35412109 -8.65160156 12.52074219 -8.95507812 11.66210938 C-9.3659668 10.45844727 -9.3659668 10.45844727 -9.78515625 9.23046875 C-10.04176025 8.49207764 -10.29836426 7.75368652 -10.56274414 6.99291992 C-11 5 -11 5 -10 2 C-8.22265625 1.015625 -8.22265625 1.015625 -6.0625 0.25 C-5.35222656 -0.01296875 -4.64195313 -0.2759375 -3.91015625 -0.546875 C-2 -1 -2 -1 0 0 Z " fill="#9EC696" transform="translate(1159,831)"/>
<path d="M0 0 C8.81224746 1.23464062 14.79180316 8.54520869 20.46875 14.88671875 C21.99272995 16.98996659 22.58730581 18.46078438 23 21 C21.62437146 19.71034824 20.29233607 18.37310707 19 17 C19 16.34 19 15.68 19 15 C18.443125 14.773125 17.88625 14.54625 17.3125 14.3125 C14.33840412 12.62449964 12.27991135 10.53323483 10 8 C10 7.34 10 6.68 10 6 C9.278125 5.731875 8.55625 5.46375 7.8125 5.1875 C5.01528026 4.00645167 2.53580025 2.66638302 0 1 C0 0.67 0 0.34 0 0 Z " fill="#E7FAE0" transform="translate(988,991)"/>
<path d="M0 0 C0.33 0 0.66 0 1 0 C1 13.53 1 27.06 1 41 C-0.32 40.67 -1.64 40.34 -3 40 C-2.34 39.34 -1.68 38.68 -1 38 C-0.75418157 35.13563176 -0.62630619 32.3609686 -0.5859375 29.4921875 C-0.56657135 28.65156769 -0.5472052 27.81094788 -0.5272522 26.94485474 C-0.46738342 24.25500697 -0.42104229 21.56511657 -0.375 18.875 C-0.3368269 17.05336656 -0.29777556 15.2317513 -0.2578125 13.41015625 C-0.16167602 8.94025148 -0.07767231 4.47026221 0 0 Z " fill="#64935D" transform="translate(1603,1312)"/>
<path d="M0 0 C-1.53643852 3.68069887 -3.78150945 5.98775204 -6.625 8.75 C-7.85089844 9.94882813 -7.85089844 9.94882813 -9.1015625 11.171875 C-9.72804688 11.77515625 -10.35453125 12.3784375 -11 13 C-11.99 12.67 -12.98 12.34 -14 12 C-12.56665422 10.37133456 -11.12817021 8.74719006 -9.6875 7.125 C-8.88699219 6.22007813 -8.08648437 5.31515625 -7.26171875 4.3828125 C-3.10163934 0 -3.10163934 0 0 0 Z " fill="#E8F9E7" transform="translate(474,1278)"/>
<path d="M0 0 C2.1875 0.3125 2.1875 0.3125 4 1 C2.12653773 2.41873842 0.25129507 3.83501625 -1.625 5.25 C-2.66914062 6.03890625 -3.71328125 6.8278125 -4.7890625 7.640625 C-11.2109375 12.359375 -11.2109375 12.359375 -14 14 C-14.99 13.67 -15.98 13.34 -17 13 C-13.21755602 9.82762763 -9.23025219 7.13106668 -5.0859375 4.46484375 C-2.96322554 3.09815278 -2.96322554 3.09815278 -1.4765625 1.25390625 C-0.98929688 0.84011719 -0.50203125 0.42632813 0 0 Z " fill="#EBFBE5" transform="translate(1072,1103)"/>
<path d="M0 0 C1.94020422 1.86259605 3.78872521 3.73660703 5.47265625 5.8359375 C9.93903264 11.34763602 14.7550526 14.68276436 21 18 C18 19 18 19 16.1328125 18.1796875 C11.9436109 15.45752148 8.41112171 12.69538185 5 9 C3.88625 8.01 3.88625 8.01 2.75 7 C0.71078699 4.66947084 0.33777931 3.04001379 0 0 Z " fill="#E4F9E0" transform="translate(874,1333)"/>
<path d="M0 0 C0.33 0 0.66 0 1 0 C0 9 -1 18 -2 27 C-2.33 27 -2.66 27 -3 27 C-3.08797281 23.81267746 -3.14071341 20.62567212 -3.1875 17.4375 C-3.21263672 16.54224609 -3.23777344 15.64699219 -3.26367188 14.72460938 C-3.32655603 9.00215108 -2.65798531 5.08575141 0 0 Z " fill="#DDF3D9" transform="translate(459,1292)"/>
<path d="M0 0 C2 1 2 1 2.609375 2.65625 C3.10408617 5.62451704 3.2085884 8.49075719 3.25 11.5 C3.27578125 12.6240625 3.3015625 13.748125 3.328125 14.90625 C3 18 3 18 0 22 C0 14.74 0 7.48 0 0 Z " fill="#76A36D" transform="translate(1059,1298)"/>
<path d="M0 0 C0.66 0.33 1.32 0.66 2 1 C1.54109375 1.51949219 1.0821875 2.03898437 0.609375 2.57421875 C-2.11180201 5.66698506 -4.79645548 8.73594225 -7.3125 12 C-7.869375 12.66 -8.42625 13.32 -9 14 C-9.66 14 -10.32 14 -11 14 C-9.05580907 7.99068257 -5.23064093 3.48709396 0 0 Z " fill="#E3F6E2" transform="translate(895,1279)"/>
<path d="M0 0 C0.99 0.33 1.98 0.66 3 1 C2.154375 1.598125 1.30875 2.19625 0.4375 2.8125 C-3.51906085 6.06421034 -5.87182825 10.22585828 -8.484375 14.57421875 C-10 17 -10 17 -12 19 C-12 17.35 -12 15.7 -12 14 C-11.34 14 -10.68 14 -10 14 C-9.88269531 13.41605469 -9.76539063 12.83210938 -9.64453125 12.23046875 C-8.9646992 9.87783784 -8.08797271 8.31131709 -6.6875 6.3125 C-6.27886719 5.71050781 -5.87023437 5.10851563 -5.44921875 4.48828125 C-3.7086559 2.70080296 -2.42935413 2.38848947 0 2 C0 1.34 0 0.68 0 0 Z " fill="#E5F9E3" transform="translate(991,1272)"/>
<path d="M0 0 C0.99 0.33 1.98 0.66 3 1 C3.7734375 2.828125 3.7734375 2.828125 4.375 5.25 C5.85590233 10.76755545 7.92235937 15.94212504 10.109375 21.21484375 C11 24 11 24 10 27 C9.61328125 26.03320312 9.2265625 25.06640625 8.828125 24.0703125 C8.57756348 23.44406982 8.32700195 22.81782715 8.06884766 22.17260742 C7.52119846 20.80315786 6.97400074 19.43352766 6.42724609 18.0637207 C5.19871888 14.98731711 3.96477721 11.91386428 2.7109375 8.84765625 C2.35257813 7.96980469 1.99421875 7.09195313 1.625 6.1875 C1.30789063 5.41792969 0.99078125 4.64835938 0.6640625 3.85546875 C0 2 0 2 0 0 Z " fill="#9BC592" transform="translate(744,969)"/>
<path d="M0 0 C1 3 1 3 -0.00390625 5.19921875 C-3.43001776 10.66897572 -7.00488224 15.92818383 -11 21 C-11.66 20.67 -12.32 20.34 -13 20 C-12.31292969 18.97519531 -11.62585937 17.95039062 -10.91796875 16.89453125 C-10.00775046 15.53389567 -9.09759767 14.17321627 -8.1875 12.8125 C-7.73568359 12.13896484 -7.28386719 11.46542969 -6.81835938 10.77148438 C-4.45229248 7.23101931 -2.14973234 3.67811346 0 0 Z " fill="#E9FAE4" transform="translate(1275,1032)"/>
<path d="M0 0 C0.75 1.625 0.75 1.625 1 4 C-1.87653071 9.50292831 -7.20853588 16.76909064 -13.25 18.73046875 C-13.8275 18.81941406 -14.405 18.90835937 -15 19 C-14.34 18.38125 -13.68 17.7625 -13 17.125 C-8.00847068 12.13347068 -2.91534303 6.47355657 0 0 Z " fill="#E3F8E1" transform="translate(1263,1329)"/>
<path d="M0 0 C8.28185622 -0.5869032 15.41416901 0.49974774 23 4 C24.84375 5.63671875 24.84375 5.63671875 26 7 C23.51472384 6.58578731 21.4065363 6.22429589 19.1875 5 C15.87848933 3.48730941 12.61167752 3.36116775 9 3 C9 2.34 9 1.68 9 1 C6.03 1 3.06 1 0 1 C0 0.67 0 0.34 0 0 Z " fill="#DBF1D8" transform="translate(906,1274)"/>
<path d="M0 0 C0 3 0 3 -2.1171875 5.12109375 C-3.02726563 5.88550781 -3.93734375 6.64992188 -4.875 7.4375 C-9.24774778 11.10744512 -9.24774778 11.10744512 -12 16 C-12.66 16 -13.32 16 -14 16 C-11.77553498 8.65926543 -6.40600748 3.81309969 0 0 Z " fill="#6CA065" transform="translate(996,1271)"/>
<path d="M0 0 C-0.99 0.495 -0.99 0.495 -2 1 C-2.99 0.67 -3.98 0.34 -5 0 C-11.81500487 -0.72470399 -17.60118713 0.77081068 -24 3 C-24.99 3.33 -25.98 3.66 -27 4 C-26.5 2.125 -26.5 2.125 -25 0 C-17.68733452 -2.75949641 -6.91476581 -4.22941986 0 0 Z " fill="#6FA168" transform="translate(1234,1275)"/>
<path d="M0 0 C2.89589652 -0.02706445 5.79153795 -0.04687029 8.6875 -0.0625 C9.91243164 -0.07506836 9.91243164 -0.07506836 11.16210938 -0.08789062 C15.24499084 -0.10442051 19.01651707 -0.03035098 23 1 C23 1.66 23 2.32 23 3 C23.66 3 24.32 3 25 3 C25 3.66 25 4.32 25 5 C24.28457031 4.79503906 23.56914062 4.59007812 22.83203125 4.37890625 C15.20939738 2.31793539 7.88033008 1.36859608 0 1 C0 0.67 0 0.34 0 0 Z " fill="#DCF2D7" transform="translate(483,1264)"/>
<path d="M0 0 C0.33 0.66 0.66 1.32 1 2 C-3.40197703 7.65330045 -7.80138642 13.0613171 -13 18 C-13.66 17.67 -14.32 17.34 -15 17 C-13.87851562 15.78763672 -13.87851562 15.78763672 -12.734375 14.55078125 C-11.73949763 13.47143316 -10.74471077 12.39200163 -9.75 11.3125 C-9.25886719 10.78205078 -8.76773438 10.25160156 -8.26171875 9.70507812 C-5.37269261 6.56566972 -2.62459433 3.36822939 0 0 Z " fill="#9DC794" transform="translate(987,723)"/>
<path d="M0 0 C0.66 0 1.32 0 2 0 C0.50787224 5.43683334 -2.1009183 9.69063815 -5.125 14.375 C-5.82689453 15.47908203 -5.82689453 15.47908203 -6.54296875 16.60546875 C-7.68958913 18.40730078 -8.84401076 20.20416431 -10 22 C-10.33 20.68 -10.66 19.36 -11 18 C-10.34 18 -9.68 18 -9 18 C-8.73316406 17.28070312 -8.46632813 16.56140625 -8.19140625 15.8203125 C-6.98951698 12.97518445 -5.56789377 10.4948465 -3.9375 7.875 C-2.27320598 5.19748052 -1.00009199 3.00027598 0 0 Z " fill="#EEFCE8" transform="translate(1140,1077)"/>
<path d="M0 0 C0.99 0.33 1.98 0.66 3 1 C0.73023018 2.79302821 -1.54076244 4.58446793 -3.8125 6.375 C-4.77639648 7.13683594 -4.77639648 7.13683594 -5.75976562 7.9140625 C-6.38173828 8.40390625 -7.00371094 8.89375 -7.64453125 9.3984375 C-8.21534424 9.84880371 -8.78615723 10.29916992 -9.37426758 10.76318359 C-10.87201655 11.90263341 -12.43415344 12.95610229 -14 14 C-13.66492913 11.01116787 -13.04314502 10.04098004 -10.8203125 7.9296875 C-9.48613281 6.91261719 -9.48613281 6.91261719 -8.125 5.875 C-7.24070312 5.19179688 -6.35640625 4.50859375 -5.4453125 3.8046875 C-3.66370046 2.48982366 -1.84238715 1.2282581 0 0 Z " fill="#E9FBE4" transform="translate(1086,867)"/>
<path d="M0 0 C0.66 0 1.32 0 2 0 C4.40007799 4.20013649 5.61962951 7.14623551 5 12 C3.5 14.875 3.5 14.875 2 17 C1.34 16.34 0.68 15.68 0 15 C0.33 14.319375 0.66 13.63875 1 12.9375 C2.17307315 9.49159762 2.14180493 6.61602578 2 3 C1.34 3 0.68 3 0 3 C0 2.01 0 1.02 0 0 Z " fill="#E0F5D9" transform="translate(1521,1322)"/>
<path d="M0 0 C-1.34715071 3.0944452 -2.7517211 4.89221259 -5.375 7 C-8.06542185 9.21299835 -10.58193625 11.4852137 -13 14 C-12.57830678 9.15483092 -10.67153905 7.30981069 -7.0625 4.1875 C-6.16660156 3.39730469 -5.27070312 2.60710937 -4.34765625 1.79296875 C-2 0 -2 0 0 0 Z " fill="#6FA369" transform="translate(1323,1271)"/>
<path d="M0 0 C0.66 0.33 1.32 0.66 2 1 C1.66226562 1.61746094 1.32453125 2.23492188 0.9765625 2.87109375 C-2.0269228 8.57424357 -3.87405577 13.65376889 -5 20 C-5.33 20 -5.66 20 -6 20 C-6.41013652 12.34411837 -5.18974226 5.93113401 0 0 Z " fill="#E2F7E0" transform="translate(1308,1282)"/>
<path d="M0 0 C2.70894767 -0.08144943 5.41541263 -0.14070614 8.125 -0.1875 C8.88554688 -0.21263672 9.64609375 -0.23777344 10.4296875 -0.26367188 C15.3739105 -0.32760579 18.71710599 0.24480494 23 3 C23.33 3.66 23.66 4.32 24 5 C23.27296875 4.79503906 22.5459375 4.59007812 21.796875 4.37890625 C14.51579832 2.42795109 7.52387929 1.38686613 0 1 C0 0.67 0 0.34 0 0 Z " fill="#DCF4D8" transform="translate(1014,1264)"/>
<path d="M0 0 C0.33 0 0.66 0 1 0 C1 2.64 1 5.28 1 8 C2.98 7.67 4.96 7.34 7 7 C3.80009492 9.74277578 0.99500618 11.6302836 -3 13 C-2.68991116 11.39536551 -2.37683713 9.79130769 -2.0625 8.1875 C-1.88847656 7.29417969 -1.71445313 6.40085937 -1.53515625 5.48046875 C-1 3 -1 3 0 0 Z " fill="#E1F7D9" transform="translate(1042,1114)"/>
<path d="M0 0 C0.33 0 0.66 0 1 0 C1.02685412 2.31243792 1.04632841 4.6249627 1.0625 6.9375 C1.07410156 8.22527344 1.08570313 9.51304687 1.09765625 10.83984375 C1 14 1 14 0 15 C-0.23075082 16.34747084 -0.41153063 17.70377565 -0.5625 19.0625 C-0.706875 20.361875 -0.85125 21.66125 -1 23 C-1.66 23 -2.32 23 -3 23 C-2.688288 20.47906702 -2.37565098 17.9582543 -2.0625 15.4375 C-1.97548828 14.73302734 -1.88847656 14.02855469 -1.79882812 13.30273438 C-1.24615509 8.86088073 -0.64605404 4.42925336 0 0 Z " fill="#E1F4DA" transform="translate(1148,963)"/>
<path d="M0 0 C4.29802556 0.59474523 7.39447463 2.12934793 11.125 4.3125 C12.15882813 4.90675781 13.19265625 5.50101563 14.2578125 6.11328125 C16.8428252 7.89185837 18.32388387 9.38179101 20 12 C16.5009283 10.71475222 13.61200116 9.19878156 10.5625 7.0625 C7.13326074 4.71708385 3.76857878 2.73934405 0 1 C0 0.67 0 0.34 0 0 Z " fill="#E8FAE1" transform="translate(1001,957)"/>
<path d="M0 0 C0 3.69834896 -0.81364222 4.27081428 -3.25 6.9375 C-3.88550781 7.63746094 -4.52101563 8.33742188 -5.17578125 9.05859375 C-7.07727446 11.08223855 -8.99660415 13.07673998 -11 15 C-11.66 14.67 -12.32 14.34 -13 14 C-11.58474822 12.41540185 -10.1677358 10.83237609 -8.75 9.25 C-7.96109375 8.36828125 -7.1721875 7.4865625 -6.359375 6.578125 C-4.29407328 4.32133835 -2.18264936 2.14260074 0 0 Z " fill="#9EC893" transform="translate(1063,889)"/>
<path d="M0 0 C0.66 0.33 1.32 0.66 2 1 C0.39766277 2.93903849 -1.20678478 4.87626204 -2.8125 6.8125 C-3.26431641 7.35970703 -3.71613281 7.90691406 -4.18164062 8.47070312 C-6.35702693 11.09069392 -8.52526283 13.65681032 -11 16 C-10.67 14.35 -10.34 12.7 -10 11 C-9.34 11 -8.68 11 -8 11 C-7.79375 10.29875 -7.5875 9.5975 -7.375 8.875 C-5.54218423 5.04274884 -3.09748481 2.89547493 0 0 Z " fill="#ECFCE8" transform="translate(971,739)"/>
<path d="M0 0 C0 0.66 0 1.32 0 2 C-6.46794133 3.51233701 -12.35590042 4.21432579 -19 4 C-19 3.67 -19 3.34 -19 3 C-16.77228658 2.49356447 -14.54275924 1.9951038 -12.3125 1.5 C-10.45044922 1.08234375 -10.45044922 1.08234375 -8.55078125 0.65625 C-5.57601782 0.10645874 -3.00631398 -0.13795705 0 0 Z " fill="#A4CA98" transform="translate(1005,1157)"/>
<path d="M0 0 C4.89367634 2.79129597 8.74897716 5.25892502 12 10 C8.44577514 10 8.10684151 9.47208088 5.625 7.125 C2.8907868 4.66362761 0.5746867 3.0832384 -3 2 C-2.01 1.34 -1.02 0.68 0 0 Z " fill="#72A56B" transform="translate(1238,1275)"/>
<path d="M0 0 C4.0879355 0.54168757 6.42190476 1.74231877 9.625 4.3125 C10.38039063 4.90675781 11.13578125 5.50101563 11.9140625 6.11328125 C13.9291688 7.93593358 15.45597796 9.77247775 17 12 C12.87431702 10.13406611 9.69323297 7.42028263 6.21875 4.55859375 C4.06557901 3.04606695 2.56831694 2.42610713 0 2 C0 1.34 0 0.68 0 0 Z " fill="#E5F8E0" transform="translate(1022,691)"/>
<path d="M0 0 C0 0.33 0 0.66 0 1 C-0.61746094 1.15855469 -1.23492188 1.31710937 -1.87109375 1.48046875 C-8.14189933 3.20804228 -13.45558674 5.61174745 -19 9 C-19 8.01 -19 7.02 -19 6 C-17.58671871 5.18162558 -16.16921654 4.37053781 -14.75 3.5625 C-13.56664062 2.88380859 -13.56664062 2.88380859 -12.359375 2.19140625 C-8.15610906 0.06889613 -4.68665759 -0.10651495 0 0 Z " fill="#E1F6DD" transform="translate(1337,1265)"/>
<path d="M0 0 C0 0.33 0 0.66 0 1 C-1.08539062 1.12117188 -2.17078125 1.24234375 -3.2890625 1.3671875 C-4.73441404 1.53612469 -6.17972442 1.70541425 -7.625 1.875 C-8.33785156 1.95363281 -9.05070312 2.03226563 -9.78515625 2.11328125 C-14.08202185 2.62575146 -17.921207 3.46884427 -22 5 C-22 4.34 -22 3.68 -22 3 C-15.08715353 -1.04654428 -7.74175497 -0.26901851 0 0 Z " fill="#D9F1D5" transform="translate(1508,1264)"/>
<path d="M0 0 C-0.72445312 0.38671875 -1.44890625 0.7734375 -2.1953125 1.171875 C-7.29177543 3.9171697 -12.26213387 6.67068867 -17 10 C-16.04356622 6.51881865 -15.32477102 5.21962932 -12.28515625 3.1640625 C-11.22167969 2.65617188 -10.15820312 2.14828125 -9.0625 1.625 C-8.00160156 1.10164062 -6.94070313 0.57828125 -5.84765625 0.0390625 C-3 -1 -3 -1 0 0 Z " fill="#EBFBE4" transform="translate(946,972)"/>
<path d="M0 0 C0.75 1.5625 0.75 1.5625 1 4 C-1.13383106 8.42572369 -3.30791262 11.70349342 -7 15 C-7 12 -7 12 -6 10 C-5.34 10 -4.68 10 -4 10 C-3.8453125 9.195625 -3.8453125 9.195625 -3.6875 8.375 C-2.81907303 5.37497956 -1.44379704 2.7620465 0 0 Z " fill="#E7FAE4" transform="translate(1253,1321)"/>
<path d="M0 0 C0.66 0 1.32 0 2 0 C1.67 0.99 1.34 1.98 1 3 C0.34 3 -0.32 3 -1 3 C-1.33 7.29 -1.66 11.58 -2 16 C-4.50304378 12.24543433 -4.45280074 10.45254066 -4 6 C-2.125 2.5625 -2.125 2.5625 0 0 Z " fill="#D4EECF" transform="translate(1490,1278)"/>
<path d="M0 0 C4.54075781 4.14010271 7.71842138 8.82390176 11 14 C10.01 13.67 9.02 13.34 8 13 C8 12.34 8 11.68 8 11 C7.34 11 6.68 11 6 11 C5.525625 10.195625 5.05125 9.39125 4.5625 8.5625 C3.20016328 5.7081924 3.20016328 5.7081924 0 5 C0 3.35 0 1.7 0 0 Z " fill="#DDF6D9" transform="translate(671,1285)"/>
<path d="M0 0 C0.66 0.33 1.32 0.66 2 1 C0.78521149 2.18163051 -0.44752408 3.34482835 -1.6875 4.5 C-2.37199219 5.1496875 -3.05648438 5.799375 -3.76171875 6.46875 C-6.40656372 8.27813784 -7.86162389 8.3077917 -11 8 C-8.83385197 5.69125289 -6.60793392 3.94709819 -3.9375 2.25 C-2.89916016 1.57710937 -2.89916016 1.57710937 -1.83984375 0.890625 C-1.23269531 0.59671875 -0.62554688 0.3028125 0 0 Z " fill="#E7FADE" transform="translate(1071,1132)"/>
<path d="M0 0 C5.66177782 1.4517379 10.49459884 4.31558305 15 8 C15 8.66 15 9.32 15 10 C11.13518578 8.61423779 8.03192572 6.81080359 4.6875 4.4375 C3.80449219 3.81746094 2.92148437 3.19742188 2.01171875 2.55859375 C1.34785156 2.04425781 0.68398438 1.52992188 0 1 C0 0.67 0 0.34 0 0 Z " fill="#E5F8DF" transform="translate(942,855)"/>
<path d="M0 0 C0.66 0 1.32 0 2 0 C0.25192871 5.46737191 -1.65794081 10.75824848 -4 16 C-3.34 16.33 -2.68 16.66 -2 17 C-2.99 17 -3.98 17 -5 17 C-4.69343615 10.37822074 -3.25711277 5.77874846 0 0 Z " fill="#ECFCE9" transform="translate(925,809)"/>
<path d="M0 0 C0.99 0.33 1.98 0.66 3 1 C-0.63 4.96 -4.26 8.92 -8 13 C-8.33 12.01 -8.66 11.02 -9 10 C-8.34 10 -7.68 10 -7 10 C-6.773125 9.46375 -6.54625 8.9275 -6.3125 8.375 C-4.56617944 5.21499137 -2.3597151 2.7323017 0 0 Z " fill="#EBFBE7" transform="translate(988,719)"/>
<path d="M0 0 C0.99 0.33 1.98 0.66 3 1 C-6.71428571 9 -6.71428571 9 -10 9 C-10 8.34 -10 7.68 -10 7 C-8.824375 6.87625 -8.824375 6.87625 -7.625 6.75 C-4.86943709 6.29090262 -4.86943709 6.29090262 -3.875 4.0625 C-3.58625 3.381875 -3.2975 2.70125 -3 2 C-2.01 1.34 -1.02 0.68 0 0 Z " fill="#E7FAE5" transform="translate(937,1332)"/>
<path d="M0 0 C0.99 0.33 1.98 0.66 3 1 C2.2575 1.845625 1.515 2.69125 0.75 3.5625 C-1.98486187 6.82719266 -3.97901586 10.25743678 -6 14 C-7.125 10.25 -7.125 10.25 -6 8 C-5.34 8 -4.68 8 -4 8 C-3.8453125 7.13375 -3.8453125 7.13375 -3.6875 6.25 C-2.90207202 3.67950842 -1.69495803 2.06342716 0 0 Z " fill="#E4F9E3" transform="translate(1192,1276)"/>
<path d="M0 0 C0.99 0.33 1.98 0.66 3 1 C-3.435 5.95 -3.435 5.95 -10 11 C-10 10.01 -10 9.02 -10 8 C-7.91796875 5.921875 -7.91796875 5.921875 -5.1875 3.75 C-4.29417969 3.02296875 -3.40085937 2.2959375 -2.48046875 1.546875 C-1.25263672 0.78117187 -1.25263672 0.78117187 0 0 Z " fill="#EEFCE7" transform="translate(1100,1127)"/>
<path d="M0 0 C0.33 0.66 0.66 1.32 1 2 C-2.72346836 6.42094803 -6.29521038 10.57833482 -11 14 C-11 11 -11 11 -9.35546875 9.31640625 C-8.64003906 8.73761719 -7.92460938 8.15882812 -7.1875 7.5625 C-4.33911593 5.2433239 -2.103681 3.01947904 0 0 Z " fill="#B8D9AE" transform="translate(1118,1112)"/>
<path d="M0 0 C0.33 0 0.66 0 1 0 C1.4375 3.125 1.4375 3.125 1 7 C-1.05383947 9.39614605 -3.48048201 11.12250051 -6 13 C-7.01707077 13.98263271 -8.02280495 14.97770364 -9 16 C-9 13 -9 13 -7.7578125 11.39453125 C-7.21898437 10.87246094 -6.68015625 10.35039063 -6.125 9.8125 C-5.59132813 9.28269531 -5.05765625 8.75289062 -4.5078125 8.20703125 C-3 7 -3 7 -1 7 C-0.67 4.69 -0.34 2.38 0 0 Z " fill="#9DC691" transform="translate(920,962)"/>
<path d="M0 0 C1.62477811 2.96162086 2.51695886 5.69266927 3.1875 9 C3.36667969 9.845625 3.54585937 10.69125 3.73046875 11.5625 C4.00334098 14.03021411 3.76424119 15.65849506 3 18 C2.30030318 15.75376301 1.61564957 13.50283586 0.9375 11.25 C0.55464844 9.99703125 0.17179688 8.7440625 -0.22265625 7.453125 C-0.92656828 4.3261992 -1.16653785 2.90533954 0 0 Z " fill="#9DC792" transform="translate(739,945)"/>
<path d="M0 0 C0.33 0.99 0.66 1.98 1 3 C-0.29296875 5.12109375 -0.29296875 5.12109375 -2.1875 7.4375 C-2.79980469 8.19933594 -3.41210938 8.96117187 -4.04296875 9.74609375 C-5.94246612 11.93373842 -7.92455141 13.97977399 -10 16 C-8.55797524 11.84848662 -6.4989562 8.70021555 -3.875 5.1875 C-3.15054687 4.21167969 -2.42609375 3.23585938 -1.6796875 2.23046875 C-0.84824219 1.12638672 -0.84824219 1.12638672 0 0 Z " fill="#9FC694" transform="translate(1042,913)"/>
<path d="M0 0 C0.33 0.99 0.66 1.98 1 3 C-0.24372189 3.98712878 -1.49527218 4.96439905 -2.75 5.9375 C-3.44609375 6.48277344 -4.1421875 7.02804687 -4.859375 7.58984375 C-6.96092128 8.97425654 -8.54321799 9.56286987 -11 10 C-11 9.34 -11 8.68 -11 8 C-9.3203125 6.7109375 -9.3203125 6.7109375 -7.125 5.375 C-6.40570312 4.92898438 -5.68640625 4.48296875 -4.9453125 4.0234375 C-3 3 -3 3 -1 3 C-0.67 2.01 -0.34 1.02 0 0 Z " fill="#6EA168" transform="translate(1531,1342)"/>
<path d="M0 0 C0.99 0.33 1.98 0.66 3 1 C-0.3 4.63 -3.6 8.26 -7 12 C-7 9 -7 9 -6 7 C-5.34 7 -4.68 7 -4 7 C-3.8453125 6.0409375 -3.8453125 6.0409375 -3.6875 5.0625 C-3.460625 4.381875 -3.23375 3.70125 -3 3 C-2.01 2.67 -1.02 2.34 0 2 C0 1.34 0 0.68 0 0 Z " fill="#ECFDE8" transform="translate(1055,894)"/>
<path d="M0 0 C0.99 0.33 1.98 0.66 3 1 C2.2575 1.495 1.515 1.99 0.75 2.5 C-2.65862674 5.59875158 -4.18726063 8.82766134 -6 13 C-6.33 13 -6.66 13 -7 13 C-6.51098901 6.64285714 -6.51098901 6.64285714 -4.0625 3.5625 C-2 2 -2 2 0 2 C0 1.34 0 0.68 0 0 Z " fill="#E6F9E4" transform="translate(1483,1269)"/>
<path d="M0 0 C0 3 0 3 -1.53125 4.82421875 C-2.1809375 5.43910156 -2.830625 6.05398438 -3.5 6.6875 C-4.1496875 7.31011719 -4.799375 7.93273438 -5.46875 8.57421875 C-5.9740625 9.04472656 -6.479375 9.51523438 -7 10 C-7.66 9.67 -8.32 9.34 -9 9 C-7.87895467 7.68412059 -6.75303035 6.37239647 -5.625 5.0625 C-4.99851562 4.33160156 -4.37203125 3.60070313 -3.7265625 2.84765625 C-2 1 -2 1 0 0 Z " fill="#71A26A" transform="translate(463,1272)"/>
<path d="M0 0 C0.33 0 0.66 0 1 0 C1.22577402 5.4185766 0.46670113 9.77487721 -1 15 C-1.33 15 -1.66 15 -2 15 C-2.21755666 9.5610835 -2.10428384 5.12919186 0 0 Z " fill="#EBFBE7" transform="translate(1117,1032)"/>
<path d="M0 0 C0.33 0 0.66 0 1 0 C2.823321 6.15370839 3.2361959 11.59646678 3 18 C2.67 18 2.34 18 2 18 C0.3722167 11.85221129 -0.20190089 6.35987804 0 0 Z " fill="#9CC693" transform="translate(730,899)"/>
<path d="M0 0 C0.33 0.66 0.66 1.32 1 2 C-0.36328125 4.8203125 -0.36328125 4.8203125 -2.3125 8.125 C-2.94800781 9.22070312 -3.58351563 10.31640625 -4.23828125 11.4453125 C-4.81964844 12.28835938 -5.40101563 13.13140625 -6 14 C-6.66 14 -7.32 14 -8 14 C-6.6744419 10.37723685 -5.05653045 7.36494652 -2.875 4.1875 C-2.33617187 3.39730469 -1.79734375 2.60710938 -1.2421875 1.79296875 C-0.83226562 1.20128906 -0.42234375 0.60960937 0 0 Z " fill="#9FC897" transform="translate(947,774)"/>
<path d="M0 0 C3.91939465 3.80411834 7.49102731 7.81576108 11 12 C10.01 12.495 10.01 12.495 9 13 C1.33257403 4.738041 1.33257403 4.738041 0 0 Z " fill="#E9FBE4" transform="translate(936,1097)"/>
<path d="M0 0 C0.33 0.99 0.66 1.98 1 3 C-0.07421875 4.97265625 -0.07421875 4.97265625 -1.6875 7.0625 C-2.20699219 7.75472656 -2.72648437 8.44695312 -3.26171875 9.16015625 C-5.06223358 11.0658697 -6.60035853 11.99100043 -9 13 C-8.60167969 12.48050781 -8.20335937 11.96101563 -7.79296875 11.42578125 C-4.97822677 7.72073158 -2.28614026 4.06424935 0 0 Z " fill="#E7F9E2" transform="translate(1259,1056)"/>
<path d="M0 0 C0.66 0 1.32 0 2 0 C0.54955729 4.10958767 -1.51110752 7.43258745 -4 11 C-4.64453125 9.234375 -4.64453125 9.234375 -5 7 C-4.07421875 5.078125 -4.07421875 5.078125 -2.6875 3.25 C-2.23761719 2.63640625 -1.78773437 2.0228125 -1.32421875 1.390625 C-0.88722656 0.93171875 -0.45023438 0.4728125 0 0 Z " fill="#ECFBE5" transform="translate(1034,921)"/>
<path d="M0 0 C2.12508244 3.18762365 2.5020163 5.26512223 3 9 C-0.75 12 -0.75 12 -3 12 C-3 11.34 -3 10.68 -3 10 C-2.01 9.34 -1.02 8.68 0 8 C0.36297936 6.02252878 0.36297936 6.02252878 0.1875 3.875 C0.125625 2.59625 0.06375 1.3175 0 0 Z " fill="#EAFBE2" transform="translate(1111,842)"/>
<path d="M0 0 C0.33 0 0.66 0 1 0 C1 5.61 1 11.22 1 17 C-0.32 15.68 -1.64 14.36 -3 13 C-2.34 12.67 -1.68 12.34 -1 12 C-0.53101037 9.1840151 -0.53101037 9.1840151 -0.375 5.9375 C-0.30023437 4.83277344 -0.22546875 3.72804688 -0.1484375 2.58984375 C-0.09945312 1.73519531 -0.05046875 0.88054687 0 0 Z " fill="#E3FCDD" transform="translate(720,1315)"/>
<path d="M0 0 C0.66 0 1.32 0 2 0 C0.41037341 4.03520597 -1.28232318 8.01811282 -3 12 C-3.33 12 -3.66 12 -4 12 C-4.50130606 6.73628638 -3.31168629 4.0909066 0 0 Z " fill="#E7F9E5" transform="translate(875,1282)"/>
<path d="M0 0 C2.71224618 1.61268692 5.37352812 3.24901874 8 5 C6.25 8.875 6.25 8.875 4 10 C4.0825 9.236875 4.165 8.47375 4.25 7.6875 C4.30342071 4.85583656 4.30342071 4.85583656 2 3.3125 C1.34 2.879375 0.68 2.44625 0 2 C0 1.34 0 0.68 0 0 Z " fill="#6E9865" transform="translate(511,1271)"/>
<path d="M0 0 C-8.261959 4.40774487 -8.261959 4.40774487 -13 5 C-9.05611108 0.6179012 -5.85609696 -1.72457093 0 0 Z " fill="#DAF2D7" transform="translate(1219,1276)"/>
<path d="M0 0 C0.99 0.33 1.98 0.66 3 1 C0.19195732 3.96404505 -2.18315774 6.44499019 -6 8 C-6.66 6.68 -7.32 5.36 -8 4 C-7.236875 3.896875 -6.47375 3.79375 -5.6875 3.6875 C-2.82940576 2.95635961 -1.84257115 2.23048087 0 0 Z " fill="#E6F9E0" transform="translate(1028,984)"/>
<path d="M0 0 C0.66 0.33 1.32 0.66 2 1 C-0.31 4.63 -2.62 8.26 -5 12 C-6 9 -6 9 -5.22265625 7.17578125 C-4.1484375 5.45052083 -3.07421875 3.72526042 -2 2 C-1.34 2 -0.68 2 0 2 C0 1.34 0 0.68 0 0 Z " fill="#EBFCE7" transform="translate(945,774)"/>
<path d="M0 0 C0.99 0.33 1.98 0.66 3 1 C-0.3 3.64 -3.6 6.28 -7 9 C-7.33 8.01 -7.66 7.02 -8 6 C-6.68 5.67 -5.36 5.34 -4 5 C-4 4.34 -4 3.68 -4 3 C-2.1875 1.3125 -2.1875 1.3125 0 0 Z " fill="#ECFCE7" transform="translate(1016,695)"/>
<path d="M0 0 C2.32472205 2.85306797 3.7508258 5.54074837 5 9 C1.535 7.02 1.535 7.02 -2 5 C-1.125 1.125 -1.125 1.125 0 0 Z " fill="#71A269" transform="translate(1474,1337)"/>
<path d="M0 0 C3.71599191 -0.20086443 4.77208445 -0.1519437 8 2 C9.35251497 3.31387169 10.68945377 4.64426252 12 6 C10.55903414 5.57405412 9.12231288 5.13373367 7.6875 4.6875 C6.88699219 4.44386719 6.08648438 4.20023438 5.26171875 3.94921875 C2.90035427 2.95817977 1.66120007 1.91925057 0 0 Z " fill="#DDF3D7" transform="translate(1483,1337)"/>
<path d="M0 0 C1.65 0.33 3.3 0.66 5 1 C5 1.66 5 2.32 5 3 C4.2575 3.103125 3.515 3.20625 2.75 3.3125 C-0.17014018 4.04253504 -1.73187554 5.06789398 -4 7 C-3.67 5.68 -3.34 4.36 -3 3 C-2.34 3 -1.68 3 -1 3 C-0.67 2.01 -0.34 1.02 0 0 Z " fill="#E3F7DE" transform="translate(1476,1332)"/>
<path d="M0 0 C0.99 0.33 1.98 0.66 3 1 C1.63875 2.11375 1.63875 2.11375 0.25 3.25 C-2.3069423 5.37674584 -4.69110193 7.60229816 -7 10 C-7 9.01 -7 8.02 -7 7 C-6.34 7 -5.68 7 -5 7 C-5 6.01 -5 5.02 -5 4 C-2.6875 1.75 -2.6875 1.75 0 0 Z " fill="#E4F8E4" transform="translate(884,1272)"/>
<path d="M0 0 C0.33 0.66 0.66 1.32 1 2 C-0.98 4.31 -2.96 6.62 -5 9 C-5.99 8.67 -6.98 8.34 -8 8 C-5.36 5.36 -2.72 2.72 0 0 Z " fill="#EAFAE4" transform="translate(1107,1102)"/>
<path d="M0 0 C3.55780196 0.60990891 6.6828589 1.5783681 10 3 C10 3.66 10 4.32 10 5 C10.99 5.33 11.98 5.66 13 6 C12.67 6.66 12.34 7.32 12 8 C8 5.33333333 4 2.66666667 0 0 Z " fill="#E7F9E0" transform="translate(998,972)"/>
<path d="M0 0 C-3.63 2.31 -7.26 4.62 -11 7 C-11 6.01 -11 5.02 -11 4 C-10.34 4 -9.68 4 -9 4 C-9 3.34 -9 2.68 -9 2 C-3.375 -1.125 -3.375 -1.125 0 0 Z " fill="#EBFBE4" transform="translate(1108,855)"/>
<path d="M0 0 C3.24271506 0.5590888 4.93057424 1.4132178 7 4 C7 4.66 7 5.32 7 6 C8.32 6.33 9.64 6.66 11 7 C10.01 7.33 9.02 7.66 8 8 C5.95703125 6.6015625 5.95703125 6.6015625 3.8125 4.625 C3.09707031 3.97789063 2.38164063 3.33078125 1.64453125 2.6640625 C0 1 0 1 0 0 Z " fill="#E6FAE2" transform="translate(888,1333)"/>
<path d="M0 0 C-4.455 3.465 -4.455 3.465 -9 7 C-9.66 6.34 -10.32 5.68 -11 5 C-10.01 4.67 -9.02 4.34 -8 4 C-8 3.34 -8 2.68 -8 2 C-3.61016949 -1.20338983 -3.61016949 -1.20338983 0 0 Z " fill="#E7F8E0" transform="translate(1041,977)"/>
<path d="M0 0 C0 2.97 0 5.94 0 9 C-0.66 8.34 -1.32 7.68 -2 7 C-2 6.01 -2 5.02 -2 4 C-2.99 3.67 -3.98 3.34 -5 3 C-1.125 0 -1.125 0 0 0 Z " fill="#DDF8D9" transform="translate(1371,1344)"/>
<path d="M0 0 C0.33 0 0.66 0 1 0 C1.4375 2.1875 1.4375 2.1875 1 5 C-1.13995327 6.98441782 -3.50175965 8.5023304 -6 10 C-6.66 9.67 -7.32 9.34 -8 9 C-6.8553125 8.1646875 -6.8553125 8.1646875 -5.6875 7.3125 C-3.03568819 5.03070844 -1.68044905 3.02480829 0 0 Z " fill="#E1F5DF" transform="translate(1534,1340)"/>
<path d="M0 0 C0.66 0.66 1.32 1.32 2 2 C-1.96 3.98 -5.92 5.96 -10 8 C-10 7.34 -10 6.68 -10 6 C-9.36191406 5.65066406 -8.72382812 5.30132813 -8.06640625 4.94140625 C-7.24011719 4.48636719 -6.41382813 4.03132813 -5.5625 3.5625 C-4.73878906 3.11003906 -3.91507813 2.65757813 -3.06640625 2.19140625 C-1.07691202 1.16337603 -1.07691202 1.16337603 0 0 Z " fill="#9DC594" transform="translate(1169,1135)"/>
<path d="M0 0 C0.99 0.33 1.98 0.66 3 1 C-0.96 4.465 -0.96 4.465 -5 8 C-5.33 7.01 -5.66 6.02 -6 5 C-1.60546875 0.99609375 -1.60546875 0.99609375 0 0 Z " fill="#E7FAE3" transform="translate(1082,1095)"/>
<path d="M0 0 C3.26566506 4.89849759 3.09311493 8.31998909 3 14 C2.67 14 2.34 14 2 14 C0.4087311 9.126739 -0.21192221 5.19209404 0 0 Z " fill="#E4F7DE" transform="translate(1115,1012)"/>
<path d="M0 0 C0.33 0 0.66 0 1 0 C1.125 5.75 1.125 5.75 0 8 C-0.66 8 -1.32 8 -2 8 C-2.33 8.99 -2.66 9.98 -3 11 C-2.53199289 6.94393835 -2.12046792 3.53411321 0 0 Z " fill="#D0EACD" transform="translate(1316,1292)"/>
<path d="M0 0 C0.33 0 0.66 0 1 0 C1.125 5.75 1.125 5.75 0 8 C-0.66 8 -1.32 8 -2 8 C-2.33 8.99 -2.66 9.98 -3 11 C-2.53199289 6.94393835 -2.12046792 3.53411321 0 0 Z " fill="#D6EDD2" transform="translate(990,1292)"/>
<path d="M0 0 C2.5 1.375 2.5 1.375 5 3 C5 3.66 5 4.32 5 5 C3.37373596 6.38232443 1.7074998 7.71937515 0 9 C0 6.03 0 3.06 0 0 Z " fill="#78A471" transform="translate(940,1274)"/>
<path d="M0 0 C4.29 0 8.58 0 13 0 C11 2 11 2 8.8359375 2.1953125 C7.61777344 2.16050781 7.61777344 2.16050781 6.375 2.125 C5.55773437 2.10695313 4.74046875 2.08890625 3.8984375 2.0703125 C3.27195312 2.04710937 2.64546875 2.02390625 2 2 C1.67 2.66 1.34 3.32 1 4 C0.34 4 -0.32 4 -1 4 C-0.67 2.68 -0.34 1.36 0 0 Z " fill="#82AA7C" transform="translate(615,1266)"/>
<path d="M0 0 C0.66 0.33 1.32 0.66 2 1 C-0.64 3.97 -3.28 6.94 -6 10 C-6.33 9.01 -6.66 8.02 -7 7 C-4.69 4.69 -2.38 2.38 0 0 Z " fill="#EFFCE9" transform="translate(1120,1108)"/>
<path d="M0 0 C0.33 0.99 0.66 1.98 1 3 C-0.21484375 4.82421875 -0.21484375 4.82421875 -1.9375 6.6875 C-2.50339844 7.31011719 -3.06929687 7.93273438 -3.65234375 8.57421875 C-4.09707031 9.04472656 -4.54179688 9.51523438 -5 10 C-5.66 9.67 -6.32 9.34 -7 9 C-4.69 6.03 -2.38 3.06 0 0 Z " fill="#E9FAE3" transform="translate(1117,1089)"/>
<path d="M0 0 C2.5999298 2.51027705 4.99091227 4.9863684 7 8 C7 8.66 7 9.32 7 10 C6.34 10 5.68 10 5 10 C3.7109375 8.57421875 3.7109375 8.57421875 2.375 6.6875 C1.92898438 6.07261719 1.48296875 5.45773437 1.0234375 4.82421875 C0 3 0 3 0 0 Z " fill="#E2F7DE" transform="translate(786,1054)"/>
<path d="M0 0 C0.99 0.33 1.98 0.66 3 1 C0.69 3.31 -1.62 5.62 -4 8 C-4.33 7.01 -4.66 6.02 -5 5 C-4.360625 4.731875 -3.72125 4.46375 -3.0625 4.1875 C-0.66868314 3.11332248 -0.66868314 3.11332248 0 0 Z " fill="#ECFDE7" transform="translate(1063,886)"/>
<path d="M0 0 C1.32 0.33 2.64 0.66 4 1 C4 1.66 4 2.32 4 3 C4.61875 3.2475 5.2375 3.495 5.875 3.75 C8.37480203 5.22047178 8.83316022 6.41403076 10 9 C8.70391053 8.06862408 7.41328368 7.1296434 6.125 6.1875 C5.40570312 5.66542969 4.68640625 5.14335938 3.9453125 4.60546875 C2 3 2 3 0 0 Z " fill="#E6F8E0" transform="translate(1041,705)"/>
<path d="M0 0 C0.66 0.66 1.32 1.32 2 2 C0.35 3.65 -1.3 5.3 -3 7 C-3.99 6.67 -4.98 6.34 -6 6 C-4.02 4.02 -2.04 2.04 0 0 Z " fill="#70A369" transform="translate(1044,1332)"/>
<path d="M0 0 C0.33 0.99 0.66 1.98 1 3 C0.319375 3.61875 0.319375 3.61875 -0.375 4.25 C-2.05950374 6.06408095 -2.99265971 7.75285627 -4 10 C-4.66 10 -5.32 10 -6 10 C-4.6302836 6.00499382 -2.74277578 3.19990508 0 0 Z " fill="#72A56E" transform="translate(988,1277)"/>
<path d="M0 0 C7.50769231 -0.36923077 7.50769231 -0.36923077 10 1.5 C10.495 2.2425 10.495 2.2425 11 3 C9 4 9 4 6.8359375 3.44140625 C6.02382812 3.15136719 5.21171875 2.86132812 4.375 2.5625 C3.55773438 2.27503906 2.74046875 1.98757813 1.8984375 1.69140625 C1.27195312 1.46324219 0.64546875 1.23507812 0 1 C0 0.67 0 0.34 0 0 Z " fill="#78A56E" transform="translate(1512,1275)"/>
<path d="M0 0 C-5 2.5 -5 2.5 -10 5 C-9.6875 3.0625 -9.6875 3.0625 -9 1 C-5.8035914 -0.06546953 -3.34252724 -0.07427838 0 0 Z " fill="#70A36C" transform="translate(904,1275)"/>
<path d="M0 0 C-2.42755736 2.42755736 -4.89189508 3.57545191 -8 5 C-8.66 5 -9.32 5 -10 5 C-9 2 -9 2 -7.25 0.8125 C-4.70039426 -0.10819096 -2.69076919 -0.14948718 0 0 Z " fill="#E6F9E4" transform="translate(1209,1267)"/>
<path d="M0 0 C0.99 0.33 1.98 0.66 3 1 C-0.96 4.465 -0.96 4.465 -5 8 C-5 7.01 -5 6.02 -5 5 C-4.01 4.67 -3.02 4.34 -2 4 C-0.79117904 1.99983534 -0.79117904 1.99983534 0 0 Z " fill="#ECFBE5" transform="translate(1110,1118)"/>
<path d="M0 0 C0.99 0.33 1.98 0.66 3 1 C-0.465 3.97 -0.465 3.97 -4 7 C-3.6875 4.625 -3.6875 4.625 -3 2 C-2.01 1.34 -1.02 0.68 0 0 Z " fill="#E3F5DD" transform="translate(926,982)"/>
<path d="M0 0 C-1.47559669 4.42679007 -3.90057368 4.91432696 -8 7 C-8.66 7 -9.32 7 -10 7 C-10 6.34 -10 5.68 -10 5 C-8.3203125 3.7109375 -8.3203125 3.7109375 -6.125 2.375 C-5.40570312 1.92898438 -4.68640625 1.48296875 -3.9453125 1.0234375 C-2 0 -2 0 0 0 Z " fill="#9AC48D" transform="translate(1042,956)"/>
<path d="M0 0 C2.97 0.33 5.94 0.66 9 1 C9.33 1.99 9.66 2.98 10 4 C6.7 3.01 3.4 2.02 0 1 C0 0.67 0 0.34 0 0 Z " fill="#DBF1D5" transform="translate(1515,1306)"/>
<path d="M0 0 C0.66 0 1.32 0 2 0 C0.90931332 3.77545388 0.0916909 6.47043472 -3 9 C-2.5020163 5.26512223 -2.12508244 3.18762365 0 0 Z " fill="#6CA066" transform="translate(619,1275)"/>
<path d="M0 0 C1.14926266 0.95421808 2.29430541 1.91352045 3.4375 2.875 C4.07558594 3.40867187 4.71367188 3.94234375 5.37109375 4.4921875 C7 6 7 6 8 8 C5.04987143 6.63029745 2.4347778 5.17390875 0 3 C0 2.01 0 1.02 0 0 Z " fill="#EAFCE4" transform="translate(823,1097)"/>
<path d="M0 0 C3.00617269 3.00617269 2.59585316 5.82381598 3 10 C1.5 8.9375 1.5 8.9375 0 7 C-0.1875 3.3125 -0.1875 3.3125 0 0 Z " fill="#70A267" transform="translate(1191,1313)"/>
<path d="M0 0 C2.97 0.33 5.94 0.66 9 1 C9.33 1.99 9.66 2.98 10 4 C6.7 3.01 3.4 2.02 0 1 C0 0.67 0 0.34 0 0 Z " fill="#E0F4DA" transform="translate(1358,1266)"/>
<path d="M0 0 C0.33 0 0.66 0 1 0 C1.36923077 6.52307692 1.36923077 6.52307692 -0.5 8.9375 C-0.995 9.288125 -1.49 9.63875 -2 10 C-1.54177532 6.53058454 -1.10868317 3.32604951 0 0 Z " fill="#E3F6DD" transform="translate(1136,1048)"/>
<path d="M0 0 C4.29425875 1.07356469 4.74740471 1.5084773 7 5 C6.67 5.66 6.34 6.32 6 7 C4.02 4.69 2.04 2.38 0 0 Z " fill="#E4F6DD" transform="translate(1055,718)"/>
</svg>
